<?xml version="1.0" encoding="UTF-8"?>
<svg xmlns="http://www.w3.org/2000/svg" viewBox="0 0 600 400">
  <defs>
    <style>
      .cls-1, .cls-2, .cls-3 {
        fill: #fff;
      }

      .cls-4 {
        fill: #75ad5e;
      }

      .cls-5, .cls-6, .cls-3 {
        opacity: .55;
      }

      .cls-6, .cls-7, .cls-8, .cls-9, .cls-10 {
        stroke-miterlimit: 10;
      }

      .cls-6, .cls-7, .cls-8, .cls-9, .cls-10, .cls-11 {
        fill: none;
      }

      .cls-6, .cls-8, .cls-9 {
        stroke: #fff;
      }

      .cls-12 {
        fill: #a5cb7e;
      }

      .cls-13 {
        fill: #ffad5a;
      }

      .cls-14 {
        fill: #373737;
      }

      .cls-2 {
        opacity: .22;
      }

      .cls-15 {
        fill: #ff774d;
      }

      .cls-16, .cls-8, .cls-17 {
        opacity: .44;
      }

      .cls-16, .cls-18 {
        fill: #585858;
      }

      .cls-7 {
        stroke: #373737;
      }

      .cls-8, .cls-9 {
        stroke-width: 2px;
      }

      .cls-19 {
        fill: #88633d;
      }

      .cls-10 {
        stroke: #ff774d;
      }

      .cls-11 {
        stroke: #585858;
        stroke-linejoin: bevel;
      }

      .cls-20 {
        fill: #161616;
      }
    </style>
  </defs>
  <g id="Layer_3">
    <polygon class="cls-20" points="417.53 136.28 398.44 271.49 286.39 294.35 360.18 373.14 545.31 324.51 576.19 143.21 417.53 136.28"/>
    <path class="cls-18" d="M421.9,140.19c-.41.23-17.62,124.45-17.62,124.45l139.65,40.2,27.04-157.99-149.07-6.67Z"/>
    <polygon class="cls-1" points="423.75 147.1 410.22 245.16 509.51 267.87 529.71 153.14 423.75 147.1"/>
    <g>
      <path class="cls-16" d="M525.8,173.74c-4.84-.73-9.69-1.64-14.57-2.1-4.15-.39-8.47-.15-12.25,1.76-5.43,2.74-8.39,8.94-8.85,15.05-.91.48-1.28,1.4-1.63,2.3-.86,2.17-1.37,4.65-1.31,6.99.02.64.1,1.28.28,1.89.17.85.53,1.64,1.21,2.2,0,0,0,0,0,0,.46.49,1.11.76,1.77.81.15.03.31.05.47.06.63.14,1.34.02,1.86-.35.27,4.55,1.99,9,5.33,12.62,2.16,2.34,4.97,4.03,7.96,4.69.26,1.18.45,2.37.62,3.57-.31.23-.57.51-.79.82-4.14-.04-7.94,1.66-11.42,3.97-3.4,2.26-6.47,4.38-10.42,5.58-1.87.57-3.41.95-5.06,1.2-.81.13-1.63.23-2.46.28-.49.03-.98.05-1.47.05-.09,0-.85-.04-.93-.03-3.52-.34-5.13-1.87-7.29-4.67-1.17-1.51-2.35-3.15-3.9-4.27-.31-.23-.64-.42-.98-.58-.64.55-1.29,1.08-1.95,1.59-.26-.42-.57-.81-.85-1.17-.61-.81-1.26-1.59-2.02-2.25-.65-.57-1.35-1.07-2.03-1.6-.32-.25-.62-.51-.92-.78-.02-.02-.06-.07-.11-.11-.04-.05-.08-.1-.08-.11-.01-.02-.04-.07-.07-.12-.02-.05-.03-.09-.05-.14-.24-.76-1.08-1.18-1.84-1.03-.69.14-1.28.78-1.27,1.51.04.14.08.28.13.42,0,.02.02.05.04.08.01.02.02.04.03.06.04.07.08.13.12.2.05.07.1.14.15.21,0,0,.04.04.05.07.02.02.03.04.04.04.12.13.25.25.39.36.14.11.28.22.43.32.01,0,.02.01.03.02.11.07.18.12.26.23.05.07.09.15.13.22.16.26.02.67-.33.67-.13,0-.27.01-.39-.01-.07-.01-.13-.05-.19-.09-.08.02-.16.05-.24.05-.24.01-.51-.08-.75-.12-.46-.08-.91-.12-1.38-.14-.93-.04-1.85-.07-2.79.01-.96.08-1.92.19-2.87.28-.41.04-.83.1-1.25.13-.35.16-.7.33-1.01.54-.62.43-.9,1.26-.65,1.98,0,.02.02.03.02.05.35-.15.71-.28,1.07-.41.55-.19,1.11-.37,1.67-.53.67-.19,1.34-.35,2.02-.49,0,0,0,0,0,0,.07-.01.14-.04.21-.05.08-.02.16-.02.24-.03,0,0,0,0,0,0,.27-.04.53-.07.8-.09.36-.03.69-.09,1.02.09.06.03.09.1.09.16h0s0,.08-.03.12c-.25.28-.56.34-.9.45-.34.11-.67.23-1.01.32-.69.17-1.38.35-2.06.56-.47.15-.94.32-1.4.5-.27.11-.55.21-.82.32-.26.1-.52.21-.78.31-.57.72-.38,1.71.21,2.36.22-.15.45-.28.69-.4.73-.38,1.47-.73,2.23-1.05.74-.31,1.53-.64,2.32-.8.29-.06.59-.12.88-.16.01,0,.03,0,.04,0,.14-.02.28-.03.42-.04.02,0,.04,0,.06,0,.14,0,.28,0,.43.01.15.02.3.03.44.08.16.05.27.25.13.39-.27.28-.5.46-.86.62-.35.16-.7.33-1.05.5-.68.35-1.42.59-2.11.92-.16.07-.3.17-.46.25h0c-.49.25-.98.5-1.45.77-.39.23-.79.47-1.21.66.43.8,1.31,1.12,2.2.99.02-.01.04-.03.07-.04.74-.46,1.49-.92,2.29-1.26.76-.32,1.53-.63,2.3-.93.27-.11.41.26.21.43-.03.03-.07.06-.1.09,0,0,0,0,0,0-.61.51-1.22,1.03-1.81,1.56-.36.33-.74.63-1.12.94.25.44.76.72,1.42.53.52-.14.94-.52,1.37-.83.41-.29.79-.61,1.18-.93.8-.66,1.61-1.31,2.42-1.97.23-.19.46-.37.7-.53.14,0,.28-.01.42-.01.03.01.94.08.86.07.23,0,.26,0,.11,0,.13.02.27.04.4.06.19.04.39.08.58.14.04.02.1.05.15.07-.38.27-.75.54-1.13.81.61,2.66,2.77,5.28,4.76,7.09,1.53,1.79,3.37,3.32,5.44,4.54,3.6,2.14,7.65,2.5,11.67,2.03,1.98-.07,3.98-.36,5.93-.72,1.56-.29,3.11-.63,4.65-1.01-.67,1.71-1.29,3.44-1.85,5.18-1.29,4.04-2.9,8.62-2.66,12.99l27.46,6.28,15.24-86.54c-.24-.09-.49-.2-.55-.22-.35-.12-.71-.23-1.06-.33-.73-.21-1.47-.38-2.21-.51-1.1-.23-2.07-.14-2.83-1.14-.85-1.1-1.77-2.02-3.16-2.39-1.34-.35-2.79-.23-4.05.34-.56.25-1.07.58-1.53,1-.07.06-.45.47-.74.79-.18-.09-.39-.16-.55-.22-.64-.26-1.27-.4-1.96-.45-1.26-.09-2.63.27-3.7.93-.52.32-1.02.72-1.42,1.18-.27.31-.52.86-.79,1.26-.62.21-1.3.45-1.98.85-1.4.84-2.16,2.33-2.25,3.92-.05.92.17,1.82.27,2.73-.38.6-.73,1.2-1.04,1.83-.34-1.09-1.15-1.99-2.14-2.42-.06-.03-.11-.07-.17-.1.3-1.75.65-3.5,1.28-5.19,1.2-3.24,3.41-6.09,6.6-7.55,3.57-1.64,7.64-1.53,11.45-1.1,4.29.49,8.57,1.25,12.84,1.89.23.03.44.02.63-.03.1-.41.19-.82.29-1.23.03-.29.07-.58.1-.87,0-.17.02-.33.06-.48-.1-.04-.21-.07-.33-.09ZM508.6,209.56c.32-.31.61-.63.85-1,.39-.59.58-1.19,1.41-1.24.32-.02.69.19.83.48l.03.06c.17.33.22.76,0,1.09-1.3,1.89-3.32,3.17-5.56,3.68-.83.19-1.69.25-2.53.18-.73-.05-1.62-.16-1.96-.91-.1-.21.11-.48.34-.34.24.15.59.14.87.17.4.04.81.02,1.2-.03.73-.08,1.45-.27,2.13-.56.88-.38,1.7-.91,2.39-1.58ZM499.07,206.39c.87-1.04,1.63-2.18,2.34-3.33.36-.59.71-1.19,1.03-1.81.16-.3.29-.62.49-.9.19-.28.39-.55.58-.82.06-.09.24-.07.22.06-.04.35-.09.69-.15,1.04-.06.34-.2.65-.32.97-.26.67-.54,1.33-.84,1.98-.48,1.03-1.06,1.99-1.7,2.92.04,0,.08,0,.17.02.12.01.23.03.35.05.12.02.14.02.06.01.51.07,1.15.05,1.58-.01.44-.06,1.05-.22,1.53-.39.03-.01.39-.15.23-.09.12-.05.24-.11.36-.17.46-.23.83-.37,1.33-.11.27.14.5.5.47.82-.06.61-.38.88-.9,1.11-.33.14-.66.27-1,.38-.65.2-1.32.32-1.99.38-.69.06-1.38.02-2.06-.12-.68-.14-1.25-.54-1.78-.96-.33-.26-.23-.75,0-1.02Z"/>
      <path class="cls-16" d="M410.98,239.62c.04.23.08.46.11.68.19,1.35.37,2.7.56,4.05.05.39.11.79.16,1.18l4.37,1c-.23-1.18-.46-2.37-.69-3.55-.24-1.23-.48-2.46-.71-3.7-.09-.44-.17-.9-.25-1.35,1-.15,2-.31,2.99-.46.02.19.04.38.06.56.16,1.41.47,2.74,1.11,4.01.58,1.13,1.43,2.44,2.72,2.81,1.39.39,3.12-.06,4.5-.33,1.5-.3,2.94-.77,4.36-1.35,1.16-.48,2.43-1,3.15-2.1.57-.87.73-2,.8-3.08.17-.09.32-.2.46-.33.01-.01.02-.03.04-.04,1.28-1.02,1.65-2.97,1.82-4.49.35-3.26.05-6.78-.5-10-.49-2.9-1.83-6.08-4.66-7.39-1.6-.74-3.05-.1-3.7,1.5-.74,1.83-.97,3.82-.93,5.84-.13,1.36-.15,2.73-.05,4.1.23,3.05.76,6.64,2.7,9.12.74.94,1.83,1.75,3,1.94-.1.69-.28,1.37-.67,1.8-.67.75-1.92,1.03-2.83,1.32-1.22.38-2.48.68-3.73.93-.6.12-1.2.22-1.8.28-.51.06-1.16.21-1.59-.14-.76-.61-1.25-1.81-1.53-2.71-.25-.83-.36-1.69-.46-2.54.18-.03.35-.08.51-.14.2-.03.4-.06.6-.09.84-.13,1.8-1.09,1.93-1.93.54-3.51.09-6.85-1.45-10.06-.57-1.18-2.26-1.62-3.42-1.08-1.63.11-3.26.41-4.89.6l-2.09,15.14Z"/>
    </g>
    <polygon class="cls-18" points="322.02 307.14 360.18 339.77 394.87 327.94 357.02 300.72 322.02 307.14"/>
    <polygon class="cls-11" points="398.31 277.68 347.83 287.12 434.03 342.44 523.05 318.81 398.31 277.68"/>
    <g>
      <g>
        <path class="cls-20" d="M449.31,158.95c-1.97-.14-2.95-.22-4.91-.36.25-1.96.38-2.94.63-4.91,1.97.14,2.95.22,4.91.36-.25,1.96-.38,2.94-.63,4.91Z"/>
        <path class="cls-1" d="M454.22,159.31c-1.97-.14-2.95-.22-4.91-.36.25-1.96.38-2.94.63-4.91,1.97.15,2.95.22,4.91.36l-.63,4.91Z"/>
        <path class="cls-20" d="M459.06,159.67c-1.97-.14-2.95-.22-4.91-.36.25-1.96.38-2.94.63-4.91,1.97.14,2.95.22,4.91.36-.25,1.96-.38,2.94-.63,4.91Z"/>
        <path class="cls-20" d="M463.97,160.03c-1.97-.14-2.95-.22-4.91-.36.25-1.96.38-2.94.63-4.91,1.97.14,2.95.22,4.91.36-.25,1.96-.38,2.94-.63,4.91Z"/>
        <path class="cls-20" d="M448.68,163.86c-1.97-.14-2.95-.22-4.91-.36.25-1.96.38-2.94.63-4.91,1.97.14,2.95.22,4.91.36-.25,1.96-.38,2.94-.63,4.91Z"/>
        <path class="cls-20" d="M453.59,164.22c-1.97-.14-2.95-.22-4.91-.36.25-1.96.38-2.94.63-4.91,1.97.14,2.95.22,4.91.36-.25,1.96-.38,2.94-.63,4.91Z"/>
        <path class="cls-1" d="M458.43,164.58c-1.97-.15-2.95-.22-4.91-.36.25-1.96.38-2.94.63-4.91,1.97.14,2.95.22,4.91.36-.25,1.96-.38,2.94-.63,4.91Z"/>
        <path class="cls-1" d="M463.35,164.94c-1.97-.14-2.95-.22-4.91-.36.25-1.96.38-2.94.63-4.91,1.97.14,2.95.22,4.91.36-.25,1.96-.38,2.94-.63,4.91Z"/>
        <path class="cls-20" d="M448.05,168.76c-1.97-.14-2.95-.22-4.91-.36.25-1.96.38-2.94.63-4.91,1.97.14,2.95.22,4.91.36-.25,1.96-.38,2.94-.63,4.91Z"/>
        <path class="cls-1" d="M452.97,169.12c-1.97-.14-2.95-.22-4.91-.36.25-1.96.38-2.94.63-4.91,1.97.14,2.95.22,4.91.36-.25,1.96-.38,2.94-.63,4.91Z"/>
        <path class="cls-20" d="M457.81,169.48c-1.97-.14-2.95-.22-4.91-.36.25-1.96.38-2.94.63-4.91,1.97.15,2.95.22,4.91.36-.25,1.96-.38,2.94-.63,4.91Z"/>
        <path class="cls-1" d="M462.72,169.84c-1.97-.15-2.95-.22-4.91-.36.25-1.96.38-2.94.63-4.91,1.97.14,2.95.22,4.91.36-.25,1.96-.38,2.94-.63,4.91Z"/>
        <path class="cls-1" d="M447.43,173.67c-1.97-.15-2.95-.22-4.91-.36.25-1.96.38-2.94.63-4.91,1.97.14,2.95.22,4.91.36-.25,1.96-.38,2.94-.63,4.91Z"/>
        <path class="cls-20" d="M452.34,174.03c-1.97-.14-2.95-.22-4.91-.36.25-1.96.38-2.94.63-4.91,1.97.14,2.95.22,4.91.36-.25,1.96-.38,2.94-.63,4.91Z"/>
        <path class="cls-1" d="M457.18,174.39c-1.97-.14-2.95-.22-4.91-.36.25-1.96.38-2.94.63-4.91,1.97.14,2.95.22,4.91.36-.25,1.96-.38,2.94-.63,4.91Z"/>
        <path class="cls-20" d="M462.09,174.75c-1.97-.14-2.95-.22-4.91-.36.25-1.96.38-2.94.63-4.91,1.97.15,2.95.22,4.91.36l-.63,4.91Z"/>
        <path class="cls-1" d="M446.8,178.58c-1.97-.14-2.95-.22-4.91-.36.25-1.96.38-2.94.63-4.91,1.97.15,2.95.22,4.91.36-.25,1.96-.38,2.94-.63,4.91Z"/>
        <path class="cls-20" d="M451.71,178.94c-1.97-.15-2.95-.22-4.91-.36.25-1.96.38-2.94.63-4.91,1.97.14,2.95.22,4.91.36-.25,1.96-.38,2.94-.63,4.91Z"/>
        <path class="cls-20" d="M456.55,179.29c-1.97-.14-2.95-.22-4.91-.36.25-1.96.38-2.94.63-4.91,1.97.14,2.95.22,4.91.36-.25,1.96-.38,2.94-.63,4.91Z"/>
        <path class="cls-20" d="M461.47,179.66c-1.97-.14-2.95-.22-4.91-.36.25-1.96.38-2.94.63-4.91,1.97.14,2.95.22,4.91.36-.25,1.96-.38,2.94-.63,4.91Z"/>
        <path class="cls-20" d="M446.17,183.48c-1.97-.14-2.95-.22-4.91-.36.25-1.96.38-2.94.63-4.91,1.97.14,2.95.22,4.91.36-.25,1.96-.38,2.94-.63,4.91Z"/>
        <path class="cls-20" d="M451.09,183.84c-1.97-.14-2.95-.22-4.91-.36.25-1.96.38-2.94.63-4.91,1.97.15,2.95.22,4.91.36l-.63,4.91Z"/>
        <path class="cls-1" d="M455.92,184.2c-1.97-.14-2.95-.22-4.91-.36.25-1.96.38-2.94.63-4.91,1.97.14,2.95.22,4.91.36-.25,1.96-.38,2.94-.63,4.91Z"/>
        <path class="cls-1" d="M460.84,184.56c-1.97-.14-2.95-.22-4.91-.36.25-1.96.38-2.94.63-4.91,1.97.14,2.95.22,4.91.36-.25,1.96-.38,2.94-.63,4.91Z"/>
        <path class="cls-1" d="M445.55,188.39c-1.97-.14-2.95-.22-4.91-.36.25-1.96.38-2.94.63-4.91,1.97.14,2.95.22,4.91.36-.25,1.96-.38,2.94-.63,4.91Z"/>
        <path class="cls-20" d="M450.46,188.75c-1.97-.14-2.95-.22-4.91-.36.25-1.96.38-2.94.63-4.91,1.97.14,2.95.22,4.91.36-.25,1.96-.38,2.94-.63,4.91Z"/>
        <path class="cls-20" d="M455.3,189.11c-1.97-.15-2.95-.22-4.91-.36.25-1.96.38-2.94.63-4.91,1.97.14,2.95.22,4.91.36-.25,1.96-.38,2.94-.63,4.91Z"/>
        <path class="cls-20" d="M460.21,189.47c-1.97-.14-2.95-.22-4.91-.36.25-1.96.38-2.94.63-4.91,1.97.14,2.95.22,4.91.36-.25,1.96-.38,2.94-.63,4.91Z"/>
        <path class="cls-20" d="M444.92,193.3c-1.97-.14-2.95-.22-4.91-.36.25-1.96.38-2.94.63-4.91,1.97.14,2.95.22,4.91.36-.25,1.96-.38,2.94-.63,4.91Z"/>
        <path class="cls-20" d="M449.83,193.66c-1.97-.14-2.95-.22-4.91-.36.25-1.96.38-2.94.63-4.91,1.97.14,2.95.22,4.91.36-.25,1.96-.38,2.94-.63,4.91Z"/>
        <path class="cls-20" d="M454.67,194.01c-1.97-.14-2.95-.22-4.91-.36.25-1.96.38-2.94.63-4.91,1.97.15,2.95.22,4.91.36l-.63,4.91Z"/>
        <path class="cls-1" d="M459.59,194.38c-1.97-.15-2.95-.22-4.91-.36l.63-4.91c1.97.14,2.95.22,4.91.36-.25,1.96-.38,2.94-.63,4.91Z"/>
        <path class="cls-20" d="M444.32,198.02c-1.97-.14-2.95-.22-4.91-.36.25-1.96.38-2.94.63-4.91,1.97.14,2.95.22,4.91.36-.25,1.96-.38,2.94-.63,4.91Z"/>
        <path class="cls-1" d="M449.23,198.39c-1.97-.14-2.95-.22-4.91-.36.25-1.96.38-2.94.63-4.91,1.97.14,2.95.22,4.91.36-.25,1.96-.38,2.94-.63,4.91Z"/>
        <path class="cls-20" d="M454.07,198.74c-1.97-.14-2.95-.22-4.91-.36.25-1.96.38-2.94.63-4.91,1.97.15,2.95.22,4.91.36l-.63,4.91Z"/>
        <path class="cls-20" d="M458.98,199.11c-1.97-.15-2.95-.22-4.91-.36l.63-4.91c1.97.14,2.95.22,4.91.36-.25,1.96-.38,2.94-.63,4.91Z"/>
        <path class="cls-20" d="M443.69,202.93c-1.97-.15-2.95-.22-4.91-.36.25-1.96.38-2.94.63-4.91,1.97.14,2.95.22,4.91.36-.25,1.96-.38,2.94-.63,4.91Z"/>
        <path class="cls-1" d="M448.6,203.29c-1.97-.14-2.95-.22-4.91-.36.25-1.96.38-2.94.63-4.91,1.97.14,2.95.22,4.91.36-.25,1.96-.38,2.94-.63,4.91Z"/>
        <path class="cls-20" d="M453.44,203.65c-1.97-.14-2.95-.22-4.91-.36.25-1.96.38-2.94.63-4.91,1.97.14,2.95.22,4.91.36-.25,1.96-.38,2.94-.63,4.91Z"/>
        <path class="cls-1" d="M458.35,204.01c-1.97-.14-2.95-.22-4.91-.36.25-1.96.38-2.94.63-4.91,1.97.15,2.95.22,4.91.36-.25,1.96-.38,2.94-.63,4.91Z"/>
        <path class="cls-20" d="M443.06,207.84c-1.97-.14-2.95-.22-4.91-.36.25-1.96.38-2.94.63-4.91,1.97.15,2.95.22,4.91.36l-.63,4.91Z"/>
        <path class="cls-20" d="M447.98,208.2c-1.97-.15-2.95-.22-4.91-.36l.63-4.91c1.97.14,2.95.22,4.91.36-.25,1.96-.38,2.94-.63,4.91Z"/>
        <path class="cls-20" d="M452.81,208.56c-1.97-.14-2.95-.22-4.91-.36.25-1.96.38-2.94.63-4.91,1.97.14,2.95.22,4.91.36-.25,1.96-.38,2.94-.63,4.91Z"/>
        <path class="cls-20" d="M457.73,208.92c-1.97-.14-2.95-.22-4.91-.36.25-1.96.38-2.94.63-4.91,1.97.14,2.95.22,4.91.36-.25,1.96-.38,2.94-.63,4.91Z"/>
        <path class="cls-20" d="M442.43,212.74c-1.97-.14-2.95-.22-4.91-.36.25-1.96.38-2.94.63-4.91,1.97.14,2.95.22,4.91.36-.25,1.96-.38,2.94-.63,4.91Z"/>
        <path class="cls-1" d="M447.35,213.11c-1.97-.14-2.95-.22-4.91-.36.25-1.96.38-2.94.63-4.91,1.97.15,2.95.22,4.91.36-.25,1.96-.38,2.94-.63,4.91Z"/>
        <path class="cls-20" d="M452.19,213.46c-1.97-.14-2.95-.22-4.91-.36.25-1.96.38-2.94.63-4.91,1.97.14,2.95.22,4.91.36-.25,1.96-.38,2.94-.63,4.91Z"/>
        <path class="cls-20" d="M457.1,213.83c-1.97-.14-2.95-.22-4.91-.36.25-1.96.38-2.94.63-4.91,1.97.14,2.95.22,4.91.36-.25,1.96-.38,2.94-.63,4.91Z"/>
        <path class="cls-20" d="M427.22,177.13c-1.97-.14-2.95-.22-4.91-.36.25-1.96.38-2.94.63-4.91,1.97.15,2.95.22,4.91.36-.25,1.96-.38,2.94-.63,4.91Z"/>
        <path class="cls-1" d="M432.13,177.49c-1.97-.15-2.95-.22-4.91-.36.25-1.96.38-2.94.63-4.91,1.97.14,2.95.22,4.91.36-.25,1.96-.38,2.94-.63,4.91Z"/>
        <path class="cls-1" d="M436.97,177.85c-1.97-.14-2.95-.22-4.91-.36.25-1.96.38-2.94.63-4.91,1.97.14,2.95.22,4.91.36-.25,1.96-.38,2.94-.63,4.91Z"/>
        <path class="cls-20" d="M441.89,178.21c-1.97-.14-2.95-.22-4.91-.36.25-1.96.38-2.94.63-4.91,1.97.14,2.95.22,4.91.36-.25,1.96-.38,2.94-.63,4.91Z"/>
        <path class="cls-20" d="M426.59,182.04c-1.97-.14-2.95-.22-4.91-.36.25-1.96.38-2.94.63-4.91,1.97.14,2.95.22,4.91.36-.25,1.96-.38,2.94-.63,4.91Z"/>
        <path class="cls-20" d="M431.51,182.4c-1.97-.14-2.95-.22-4.91-.36.25-1.96.38-2.94.63-4.91,1.97.15,2.95.22,4.91.36l-.63,4.91Z"/>
        <path class="cls-20" d="M436.35,182.76c-1.97-.14-2.95-.22-4.91-.36.25-1.96.38-2.94.63-4.91,1.97.14,2.95.22,4.91.36-.25,1.96-.38,2.94-.63,4.91Z"/>
        <path class="cls-1" d="M441.26,183.12c-1.97-.14-2.95-.22-4.91-.36.25-1.96.38-2.94.63-4.91,1.97.14,2.95.22,4.91.36-.25,1.96-.38,2.94-.63,4.91Z"/>
        <path class="cls-1" d="M425.97,186.94c-1.97-.14-2.95-.22-4.91-.36.25-1.96.38-2.94.63-4.91,1.97.14,2.95.22,4.91.36-.25,1.96-.38,2.94-.63,4.91Z"/>
        <path class="cls-20" d="M430.88,187.31c-1.97-.14-2.95-.22-4.91-.36.25-1.96.38-2.94.63-4.91,1.97.14,2.95.22,4.91.36-.25,1.96-.38,2.94-.63,4.91Z"/>
        <path class="cls-1" d="M435.72,187.66c-1.97-.15-2.95-.22-4.91-.36.25-1.96.38-2.94.63-4.91,1.97.14,2.95.22,4.91.36-.25,1.96-.38,2.94-.63,4.91Z"/>
        <path class="cls-20" d="M440.63,188.03c-1.97-.14-2.95-.22-4.91-.36.25-1.96.38-2.94.63-4.91,1.97.14,2.95.22,4.91.36-.25,1.96-.38,2.94-.63,4.91Z"/>
        <path class="cls-20" d="M425.34,191.85c-1.97-.14-2.95-.22-4.91-.36.25-1.96.38-2.94.63-4.91,1.97.14,2.95.22,4.91.36-.25,1.96-.38,2.94-.63,4.91Z"/>
        <path class="cls-1" d="M430.25,192.21c-1.97-.14-2.95-.22-4.91-.36.25-1.96.38-2.94.63-4.91,1.97.14,2.95.22,4.91.36-.25,1.96-.38,2.94-.63,4.91Z"/>
        <path class="cls-20" d="M435.09,192.57c-1.97-.14-2.95-.22-4.91-.36.25-1.96.38-2.94.63-4.91,1.97.15,2.95.22,4.91.36l-.63,4.91Z"/>
        <path class="cls-20" d="M440.01,192.93c-1.97-.15-2.95-.22-4.91-.36l.63-4.91c1.97.14,2.95.22,4.91.36-.25,1.96-.38,2.94-.63,4.91Z"/>
        <path class="cls-20" d="M466.43,179.93c-1.97-.15-2.95-.22-4.91-.36.25-1.96.38-2.94.63-4.91,1.97.15,2.95.22,4.91.36-.25,1.96-.38,2.94-.63,4.91Z"/>
        <path class="cls-1" d="M471.34,180.3c-1.97-.14-2.95-.22-4.91-.36.25-1.96.38-2.94.63-4.91,1.97.14,2.95.22,4.91.36-.25,1.96-.38,2.94-.63,4.91Z"/>
        <path class="cls-20" d="M476.18,180.65c-1.97-.14-2.95-.22-4.91-.36.25-1.96.38-2.94.63-4.91,1.97.14,2.95.22,4.91.36-.25,1.96-.38,2.94-.63,4.91Z"/>
        <path class="cls-20" d="M481.09,181.02c-1.97-.14-2.95-.22-4.91-.36.25-1.96.38-2.94.63-4.91,1.97.15,2.95.22,4.91.36l-.63,4.91Z"/>
        <path class="cls-20" d="M465.8,184.84c-1.97-.14-2.95-.22-4.91-.36.25-1.96.38-2.94.63-4.91,1.97.15,2.95.22,4.91.36-.25,1.96-.38,2.94-.63,4.91Z"/>
        <path class="cls-20" d="M470.71,185.2c-1.97-.15-2.95-.22-4.91-.36.25-1.96.38-2.94.63-4.91,1.97.14,2.95.22,4.91.36-.25,1.96-.38,2.94-.63,4.91Z"/>
        <path class="cls-20" d="M475.55,185.56c-1.97-.14-2.95-.22-4.91-.36.25-1.96.38-2.94.63-4.91,1.97.14,2.95.22,4.91.36-.25,1.96-.38,2.94-.63,4.91Z"/>
        <path class="cls-1" d="M480.47,185.92c-1.97-.14-2.95-.22-4.91-.36.25-1.96.38-2.94.63-4.91,1.97.14,2.95.22,4.91.36-.25,1.96-.38,2.94-.63,4.91Z"/>
        <path class="cls-20" d="M465.17,189.75c-1.97-.14-2.95-.22-4.91-.36.25-1.96.38-2.94.63-4.91,1.97.14,2.95.22,4.91.36-.25,1.96-.38,2.94-.63,4.91Z"/>
        <path class="cls-1" d="M470.09,190.11c-1.97-.14-2.95-.22-4.91-.36.25-1.96.38-2.94.63-4.91,1.97.15,2.95.22,4.91.36-.25,1.96-.38,2.94-.63,4.91Z"/>
        <path class="cls-20" d="M474.93,190.47c-1.97-.15-2.95-.22-4.91-.36.25-1.96.38-2.94.63-4.91,1.97.14,2.95.22,4.91.36-.25,1.96-.38,2.94-.63,4.91Z"/>
        <path class="cls-20" d="M479.84,190.83c-1.97-.14-2.95-.22-4.91-.36.25-1.96.38-2.94.63-4.91,1.97.14,2.95.22,4.91.36-.25,1.96-.38,2.94-.63,4.91Z"/>
        <path class="cls-20" d="M464.55,194.65c-1.97-.14-2.95-.22-4.91-.36.25-1.96.38-2.94.63-4.91,1.97.14,2.95.22,4.91.36-.25,1.96-.38,2.94-.63,4.91Z"/>
        <path class="cls-20" d="M469.46,195.02c-1.97-.14-2.95-.22-4.91-.36.25-1.96.38-2.94.63-4.91,1.97.14,2.95.22,4.91.36-.25,1.96-.38,2.94-.63,4.91Z"/>
        <path class="cls-1" d="M474.3,195.37c-1.97-.14-2.95-.22-4.91-.36.25-1.96.38-2.94.63-4.91,1.97.15,2.95.22,4.91.36l-.63,4.91Z"/>
        <path class="cls-1" d="M479.21,195.74c-1.97-.15-2.95-.22-4.91-.36l.63-4.91c1.97.14,2.95.22,4.91.36-.25,1.96-.38,2.94-.63,4.91Z"/>
        <path class="cls-20" d="M473.68,200.19c-1.97-.14-2.95-.22-4.91-.36.25-1.96.38-2.94.63-4.91,1.97.14,2.95.22,4.91.36-.25,1.96-.38,2.94-.63,4.91Z"/>
        <path class="cls-20" d="M478.6,200.55c-1.97-.14-2.95-.22-4.91-.36.25-1.96.38-2.94.63-4.91,1.97.14,2.95.22,4.91.36-.25,1.96-.38,2.94-.63,4.91Z"/>
        <path class="cls-20" d="M473.06,205.1c-1.97-.15-2.95-.22-4.91-.36.25-1.96.38-2.94.63-4.91,1.97.14,2.95.22,4.91.36-.25,1.96-.38,2.94-.63,4.91Z"/>
        <path class="cls-20" d="M477.97,205.46c-1.97-.14-2.95-.22-4.91-.36.25-1.96.38-2.94.63-4.91,1.97.14,2.95.22,4.91.36-.25,1.96-.38,2.94-.63,4.91Z"/>
        <path class="cls-20" d="M472.43,210c-1.97-.14-2.95-.22-4.91-.36.25-1.96.38-2.94.63-4.91,1.97.15,2.95.22,4.91.36l-.63,4.91Z"/>
        <path class="cls-1" d="M477.34,210.37c-1.97-.15-2.95-.22-4.91-.36l.63-4.91c1.97.14,2.95.22,4.91.36-.25,1.96-.38,2.94-.63,4.91Z"/>
        <path class="cls-20" d="M471.8,214.91c-1.97-.14-2.95-.22-4.91-.36.25-1.96.38-2.94.63-4.91,1.97.14,2.95.22,4.91.36-.25,1.96-.38,2.94-.63,4.91Z"/>
        <path class="cls-20" d="M476.72,215.27c-1.97-.15-2.95-.22-4.91-.36.25-1.96.38-2.94.63-4.91,1.97.15,2.95.22,4.91.36-.25,1.96-.38,2.94-.63,4.91Z"/>
        <path class="cls-1" d="M462.64,209.28c-1.97-.14-2.95-.22-4.91-.36.25-1.96.38-2.94.63-4.91,1.97.15,2.95.22,4.91.36l-.63,4.91Z"/>
        <path class="cls-20" d="M467.55,209.64c-1.97-.15-2.95-.22-4.91-.36l.63-4.91c1.97.14,2.95.22,4.91.36-.25,1.96-.38,2.94-.63,4.91Z"/>
        <path class="cls-1" d="M462.01,214.19c-1.97-.14-2.95-.22-4.91-.36.25-1.96.38-2.94.63-4.91,1.97.14,2.95.22,4.91.36-.25,1.96-.38,2.94-.63,4.91Z"/>
        <path class="cls-20" d="M466.93,214.55c-1.97-.14-2.95-.22-4.91-.36.25-1.96.38-2.94.63-4.91,1.97.15,2.95.22,4.91.36-.25,1.96-.38,2.94-.63,4.91Z"/>
      </g>
      <g>
        <path class="cls-20" d="M439.58,169.6c-6.48-.48-9.72-.72-16.2-1.19.83-6.47,1.24-9.7,2.07-16.17,6.48.48,9.72.72,16.2,1.19-.83,6.47-1.24,9.7-2.07,16.17Z"/>
        <path class="cls-1" d="M437.84,167.47c-4.88-.36-7.33-.54-12.21-.9.62-4.88.93-7.32,1.56-12.19,4.88.36,7.33.54,12.21.9-.62,4.88-.93,7.32-1.56,12.19Z"/>
        <path class="cls-20" d="M435.89,165.07c-3.1-.23-4.65-.34-7.75-.57.4-3.09.59-4.64.99-7.73,3.1.23,4.65.34,7.75.57-.4,3.09-.59,4.64-.99,7.73Z"/>
        <path class="cls-20" d="M482.15,172.74c-6.48-.48-9.72-.72-16.2-1.19.83-6.47,1.24-9.7,2.07-16.17,6.48.48,9.72.72,16.2,1.19-.83,6.47-1.24,9.7-2.07,16.17Z"/>
        <path class="cls-1" d="M480.41,170.61c-4.88-.36-7.33-.54-12.21-.9.62-4.88.93-7.32,1.56-12.19,4.88.36,7.33.54,12.21.9-.62,4.88-.93,7.32-1.56,12.19Z"/>
        <path class="cls-20" d="M478.46,168.21c-3.1-.23-4.65-.34-7.75-.57.4-3.09.59-4.64.99-7.73,3.1.23,4.65.34,7.75.57-.4,3.09-.59,4.64-.99,7.73Z"/>
        <path class="cls-20" d="M434.14,212.13c-6.48-.48-9.72-.72-16.2-1.19.83-6.47,1.24-9.7,2.07-16.17,6.48.48,9.72.72,16.2,1.19-.83,6.47-1.24,9.7-2.07,16.17Z"/>
        <path class="cls-1" d="M432.41,210c-4.88-.36-7.33-.54-12.21-.9.62-4.88.93-7.32,1.56-12.19,4.88.36,7.33.54,12.21.9-.62,4.88-.93,7.32-1.56,12.19Z"/>
        <path class="cls-20" d="M430.46,207.6c-3.1-.23-4.65-.34-7.75-.57.4-3.09.59-4.64.99-7.73,3.1.23,4.65.34,7.75.57-.4,3.09-.59,4.64-.99,7.73Z"/>
        <g>
          <path class="cls-1" d="M467.27,203.62c-3.1-.23-4.65-.34-7.75-.57.4-3.09.59-4.64.99-7.73,3.1.23,4.65.34,7.75.57-.4,3.09-.59,4.64-.99,7.73Z"/>
          <path class="cls-20" d="M466.04,202.1c-1.97-.14-2.95-.22-4.91-.36.25-1.96.38-2.94.63-4.91,1.97.15,2.95.22,4.91.36-.25,1.96-.38,2.94-.63,4.91Z"/>
        </g>
      </g>
    </g>
    <line class="cls-6" x1="495.15" y1="254.71" x2="507.74" y2="257.12"/>
    <path class="cls-10" d="M415.76,239.53c22.86,4.92,55.69,10.39,79.39,15.18"/>
    <g class="cls-5">
      <polygon class="cls-1" points="516.59 246.57 514.8 257.52 530.97 261.3 532.87 249.67 516.59 246.57"/>
      <polygon class="cls-1" points="514.38 260.06 511.98 274.76 528.18 278.45 530.56 263.84 514.38 260.06"/>
      <polygon class="cls-1" points="519.07 231.43 517 244.04 533.28 247.14 535.45 233.84 519.07 231.43"/>
      <polygon class="cls-1" points="509.91 287.38 526.15 290.86 527.76 280.99 511.56 277.3 509.91 287.38"/>
      <polygon class="cls-1" points="543.68 183.33 545.46 172.42 529 170.7 527.03 182.7 543.68 183.33"/>
      <polygon class="cls-1" points="509.5 289.92 508.72 294.71 524.77 299.33 525.74 293.4 509.5 289.92"/>
      <polygon class="cls-1" points="519.48 228.89 535.86 231.31 537.74 219.81 521.31 217.67 519.48 228.89"/>
      <polygon class="cls-1" points="526.62 185.25 524.42 198.68 540.93 200.2 543.27 185.89 526.62 185.25"/>
      <polygon class="cls-1" points="524.01 201.22 521.73 215.14 538.15 217.27 540.52 202.74 524.01 201.22"/>
      <g class="cls-17">
        <line class="cls-9" x1="548.43" y1="177.02" x2="562.42" y2="177.02"/>
        <line class="cls-9" x1="545.46" y1="190.36" x2="560.09" y2="191.42"/>
        <line class="cls-9" x1="543.27" y1="206.05" x2="556.27" y2="207.74"/>
        <line class="cls-9" x1="540.52" y1="222.52" x2="552.88" y2="224.06"/>
        <line class="cls-9" x1="537.74" y1="237.62" x2="551.18" y2="239.28"/>
        <line class="cls-9" x1="535.45" y1="253.1" x2="547.58" y2="255.64"/>
        <line class="cls-9" x1="532.87" y1="269.25" x2="545.46" y2="271.11"/>
        <line class="cls-9" x1="530.56" y1="285.94" x2="537.74" y2="287.85"/>
        <line class="cls-9" x1="528.61" y1="298.02" x2="539.32" y2="298.66"/>
      </g>
      <g>
        <line class="cls-7" x1="548.43" y1="181.89" x2="558.18" y2="182.1"/>
        <line class="cls-7" x1="545.46" y1="195.66" x2="553.73" y2="196.09"/>
        <line class="cls-7" x1="543.27" y1="213.46" x2="548.43" y2="213.89"/>
        <line class="cls-7" x1="541.05" y1="227.03" x2="552.35" y2="228.51"/>
        <line class="cls-7" x1="539.17" y1="242.29" x2="541.52" y2="243.13"/>
        <line class="cls-7" x1="536.25" y1="258.82" x2="545.25" y2="260.3"/>
        <line class="cls-7" x1="532.87" y1="274.29" x2="539.17" y2="275.56"/>
        <line class="cls-7" x1="530.56" y1="292.3" x2="537.74" y2="293.57"/>
      </g>
    </g>
    <line class="cls-8" x1="410.22" y1="250.62" x2="452.43" y2="260.65"/>
    <line class="cls-7" x1="409.34" y1="257.55" x2="486.34" y2="276.05"/>
    <line class="cls-7" x1="408.35" y1="261.3" x2="485.21" y2="282.13"/>
  </g>
  <g id="Layer_2">
    <g>
      <path class="cls-4" d="M85.21,392.33c14.88-.23,29.78,0,44.63,1.2,3.14.25,6.28.47,9.42.71,4.23-.23,8.46-.44,12.69-.62,7.75-.33,15.52-.44,23.27-.86,7.16-.39,14.32-.92,21.48-1.27,6.82-.34,13.75-.59,20.66-.36.73-4.5,1.17-9.02,1.26-13.5.62-31.72-16.1-36.35-19.15-74.6-3.12-39.11,7.87-46.26,8.57-82.55.28-14.62,3.73-52.57-36.92-66.06-27.23-9.03-54.42,10.42-71.23,23.99-48.72,39.29-60.88,101.39-61.97,107.34-2.62,14.35-11.52,63.4,7.8,107.92,13.17-.56,26.34-1.12,39.52-1.32Z"/>
      <path class="cls-12" d="M243.99,258.2c-.05,0-.05.1,0,.1s.05-.1,0-.1Z"/>
      <path class="cls-12" d="M118.11,181.45c-1.11-1.83-2.65-3.22-4.5-3.86-1.61-.56-4.09-.76-5.18,1.09-1.02,1.74-.06,3.86,1.01,5.21.52.66,3.13,2.57,3.14,3.94-1.72-.63-3.44-1.25-5.16-1.89-1.72-.65-3.66-1.78-5.49-1.8-3.43-.04-3.53,4.68-1.57,6.94,1.11,1.28,2.76,1.75,3.79,3.11.35.46.53,1.07.45,1.69-.13,1.01-.61.8-1.26.38-2.72-1.75-5.19-4.73-8.57-3.64-2.66.86-4.51,4.13-2.84,7.15.78,1.4,2.09,2.26,3.31,3.03,1.02.64,2.82,1.73,2.8,3.37-.03,1.82-2.46.2-3.03-.23-1.42-1.08-2.69-2.44-4.22-3.31-2.42-1.39-5.8-1.38-7.54,1.41-1.71,2.74-.3,5.79,1.77,7.48,1.07.88,2.27,1.51,3.41,2.27.26.18.52.36.77.55.15.11.38.4.56.53-.08.04-.16.08-.23.09-1.49.24-2.99-.92-4.28-1.59-1.46-.75-2.91-1.61-4.49-1.92-1.45-.28-3-.16-4.16,1.02-1.14,1.16-1.58,2.94-1.22,4.66.86,4.11,4.24,5.16,7.17,6.46,1.23.55,2.44,1.33,2.72,2.97.27,1.61-.63,1.92-1.84,1.49-3.28-1.16-6.12-4.11-9.75-3.34-2.73.58-5.47,3.47-4.75,7.01.34,1.69,1.39,2.94,2.59,3.85,1.19.91,2.68,1.37,3.74,2.5.45.48.96,1.14,1.09,1.87.02.11,0,.29,0,.42-.13.04-.31.13-.39.15-.31.05-.63.06-.95.06-1.94-.02-3.8-.82-5.67-1.33-3.31-.91-7.1-.98-9.37,2.51-1.94,2.97-1.29,6.89,1.45,8.78,2.35,1.63,5.87,1.19,7.68,3.84.7,1.03.42,2.13-.73,2.31-1.28.2-2.63-.36-3.84-.75-3.2-1.01-7.22-1.53-10.27.39-2.93,1.84-3.38,6.14-.89,8.75,1.33,1.39,2.95,1.94,4.68,2.21,1.65.27,3.67.24,4.93,1.72,1.05,1.24.75,2.61-.66,3.11-1.58.56-3.33-.04-4.88-.45-3.17-.84-6.55-1.3-9.2,1.41-2.39,2.44-2.16,6.57.19,8.93,1.17,1.18,2.6,1.96,4.1,2.37,1.55.42,3.16.57,4.67,1.19.75.31,3.36,2.08,1.62,2.83-1.38.59-3.05.53-4.49.68-3.07.33-6.28.69-9.02,2.51-2.52,1.67-5.23,5.32-3.58,8.88,1.29,2.78,4.5,3.45,6.95,3.3,1.61-.1,5.66-.95,6.23,1.71.34,1.57-1.21,2.91-2.28,3.39-1.77.8-3.83.4-5.67.52-3.12.2-6.87,2.05-7.28,6.22-.39,3.87,2.84,6.23,5.77,6.22,1.85,0,3.61-.81,5.4-1.25,1.73-.43,3.53-.27,5.19.44.86.37,3.3,1.51,2.71,3.03-.56,1.45-2.57,1.83-3.72,2.02-3.62.6-7.41.03-10.88,1.67-2.73,1.29-5.19,3.68-5.83,7.21-.2,1.1.42,2.1,1.39,2.15,2.89.13,5.77.27,8.66.4,1.37.06,2.75.13,4.12.19.51.02,2.6-.23,2.71.66.11.88-1.05,1.77-1.58,2.11-1.15.74-2.45,1.11-3.71,1.48-2.29.68-4.57,1.34-6.48,3.05-.83.74-1.58,1.63-2.11,2.7-.48.98-1.09,2.68-.69,3.81.37,1.04,1.65,1.67,2.5,1.97,1.14.4,2.34.37,3.51.17,2.48-.43,4.68-2.12,7.16-2.43,1.02-.13,2.01.07,2.82.85.7.67,1.17,1.73.56,2.68-.6.95-1.79,1.4-2.68,1.83-1.27.61-2.52,1.27-3.71,2.07-2.5,1.67-4.78,3.8-6.76,6.25-.59.73-.58,2.19.29,2.67,1.76.98,3.57,1.09,5.47.71,1.98-.4,3.83-1.38,5.8-1.77,1.61-.32,3.54-.1,4.5,1.69.86,1.6-.32,2.87-1.44,3.63-1.41.96-2.97,1.59-4.36,2.6-1.56,1.12-3,2.53-4.21,4.14-1.16,1.55-2.49,3.45-2.43,5.64.06,2.29,1.73,3.54,3.49,3.81,3.3.52,9.46-1.74,11.2,3.02.32.87,1.38,1.05,2.01.62.76-.51.84-1.52.53-2.37-1.53-4.18-5.68-5-9.11-4.83-.86.04-5.02.78-5.12-.57-.06-.8.91-1.98,1.31-2.54.62-.87,1.31-1.69,2.05-2.43,1.38-1.38,2.96-2.3,4.58-3.2,1.43-.79,2.88-1.71,3.83-3.26,2.24-3.68-.26-8.15-3.56-9.21-2.21-.71-4.54.02-6.66.77-1.3.46-2.76,1.04-4.19,1.09,2.03-2.08,4.32-3.8,6.81-5.05,2.65-1.33,6.34-3.15,5.43-7.43-.87-4.13-4.81-5.35-7.92-4.55-2.42.62-6.21,3.52-8.79,1.99.81-3.07,4.53-4.09,6.8-4.75,2.85-.84,6.64-1.97,7.58-5.77.42-1.7-.07-3.54-1.41-4.45-1.41-.96-3.27-.76-4.84-.83-3.28-.15-6.55-.3-9.83-.46,1.21-2.09,3.48-3.2,5.58-3.64,3.59-.75,7.53.08,10.95-1.64,1.33-.67,2.6-1.79,3.12-3.44.56-1.78.01-3.68-1.13-4.96-2.44-2.73-6.32-3.57-9.54-2.98-1.79.33-3.54,1.28-5.37,1.29-1.08,0-2.8-.52-2.95-2.06-.15-1.5,1.32-2.72,2.34-3.17,1.78-.79,3.85-.4,5.71-.52,3.06-.2,6.71-2,7.21-6.05.46-3.65-2.18-5.83-4.92-6.26-2.45-.39-5.14.65-7.48-.5-3.16-1.56.59-5.05,2.28-5.88,2.78-1.38,5.93-1.41,8.89-1.77,1.48-.18,3.14-.26,4.39-1.33,1.37-1.17,1.69-3.2.98-4.96-1.5-3.74-5.47-3.98-8.44-4.76-1.32-.34-2.78-.97-3.63-2.29-.76-1.18-.48-2.56.47-3.43,2.67-2.45,6.46-.27,9.38.15,2.85.41,6.92-.8,6.87-5.04-.02-1.84-.95-3.46-2.15-4.56-1.46-1.33-3.23-1.65-5.01-1.9-1.53-.22-3.35-.39-4.4-1.92-.9-1.3-.12-2.48.98-3.05,3.05-1.58,6.52-.13,9.56.63,2.63.66,6.15.44,6.82-3.4.64-3.7-2.74-6.45-5.37-7.23-1.67-.5-6.22-1.19-5.16-4.43,1.39-4.26,6.36-2.37,9.05-1.58,1.79.52,3.63.92,5.48.63.86-.14,1.65-.28,2.18-1.16.46-.76.66-1.66.62-2.58-.09-1.74-1.04-3.34-2.14-4.44-1.14-1.14-2.56-1.69-3.83-2.59-.88-.63-1.96-1.7-1.44-3.05.48-1.29,1.91-1.97,3.03-2.04,3.5-.21,6.24,3.74,9.73,3.71,3.23-.03,4.27-3.98,3.14-7.02-1.4-3.78-4.92-3.87-7.64-5.59-.89-.57-2.29-2.08-1.86-3.46.43-1.38,2.2-.87,3.07-.58,2.93.99,5.75,3.76,8.93,3.1,1.13-.23,2.18-1.04,2.4-2.44.3-1.82-.92-3.08-2.09-3.96-1.07-.8-2.24-1.42-3.33-2.18-.76-.53-1.86-1.26-1.98-2.42-.14-1.31.99-2.01,1.91-2.2,1.46-.3,2.74.53,3.92,1.45,2.22,1.74,5.47,5.36,8.28,2.95,2.71-2.33.52-6.52-1.66-8.08-1.15-.82-2.58-1.29-3.51-2.49-.98-1.27-.41-2.68.8-3.34,3.32-1.82,5.79,2.97,8.7,3.77,2.79.76,3.82-3.41,2.64-5.74-.78-1.53-2.24-2.29-3.48-3.19-.6-.44-1.13-.9-1.45-1.67-.27-.66-.43-1.62.31-1.91.75-.29,1.86.35,2.56.61.99.37,1.98.73,2.97,1.11,1.91.72,3.82,1.47,5.73,2.2.35.13.75-.02,1-.31,1.07-1.27.97-2.97.22-4.43-.8-1.56-2.12-2.29-3.13-3.58-.31-.4-1.15-1.5-.78-2.1.37-.62,1.63-.41,2.15-.32,1.77.29,3.3,1.38,4.4,3.03.63.94,2.01-.31,1.41-1.29Z"/>
      <path class="cls-12" d="M77.87,298.99c-3.83-.61-8.16-.72-10.56,3.48-1.88,3.29-1.45,8.01,2.01,9.46,1.95.82,4.24.56,6.27.86,2.3.35,4.58.95,6.79,1.76.74.27,3.71,1.28,3,2.79-.71,1.51-3.44,1.17-4.56,1.11-3.91-.23-8.1-1.06-11.49,1.88-1.45,1.26-2.57,3.11-2.72,5.28-.18,2.67,1.41,4.23,3.42,4.91,4.16,1.4,8.48.06,12.68.9,1.18.24,4.11.84,3.44,2.94-.66,2.08-2.64,2.47-4.28,2.39-2.3-.11-4.48-.69-6.79-.26-2.06.38-4.12,1.38-5.74,2.94-1.31,1.26-2.44,3.25-2.44,5.32,0,2.35,1.43,4,3.27,4.58,3.8,1.19,7.81-.51,11.6.6.97.29,3.75,1.45,2.24,2.91-1.5,1.44-3.96,1.61-5.79,1.83-1.09.13-2.19.2-3.29.2-1.14,0-2.28-.11-3.41.17-1.8.45-3.25,2.26-3.09,4.52.17,2.47,2.13,3.19,3.93,3.02,2.01-.19,4-.63,6.01-.83,1.75-.17,3.62-.24,5.28.55.61.29,1.86.97,2.05,1.82.19.83-.77,1.37-1.3,1.64-1.87.94-4,1.01-5.94,1.65-1.86.62-3.49,1.66-4.65,3.53-2.15,3.47-1.49,8.29,2.31,9.51,2.56.82,8.67.12,8.65,4.9,0,1.81-2.05,2.14-2.91,3.32-.82,1.13-.88,2.56-.38,3.75,1.24-.03,2.48-.07,3.72-.09.57,0,1.14-.01,1.71-.02-.19-1.11-1.44-1.98-2.38-1-.03,0-.09.01-.19-.05-.11-.06-.22-.18-.28-.3.03-.06.08-.16.12-.19.37-.25.74-.51,1.11-.76,1.47-1.01,2.4-2.61,2.39-4.66-.01-4.64-3.61-6.97-7.04-7.59-.92-.17-1.85-.25-2.76-.41-.77-.13-1.85-.29-2.26-1.19-.58-1.25.27-2.97,1.01-3.85,1.28-1.52,3.35-1.82,5.06-2.21,1.9-.43,3.94-.84,5.48-2.32,1.49-1.43,1.97-3.75.9-5.72-.97-1.79-2.83-2.92-4.53-3.43-3.63-1.11-7.38.08-11.02.45-.22.02-.88.18-1.17.07,0-.04,0-.09.06-.19.45-.78,1.47-.67,2.19-.66,2.3.04,4.57-.1,6.85-.51,1.9-.35,3.81-.79,5.36-2.22,1.37-1.27,2.11-3.29,1.34-5.26-1.61-4.11-6.63-4.31-9.88-4.17-1.87.08-3.82.33-5.68-.03-.62-.12-1.6-.28-1.73-1.15-.11-.73.37-1.58.73-2.11,1.19-1.71,3.29-2.64,5.09-2.96,2.2-.39,4.38.35,6.58.37,1.94.02,3.76-.55,5.2-2.15,1.2-1.34,2-3.33,1.68-5.3-.8-4.87-6.75-5.16-10.02-5.14-2.07.01-4.16.19-6.22-.06-.9-.11-1.9-.29-2.74-.72-.86-.45-.66-1.4-.27-2.24,1.81-3.87,6.71-3.06,9.74-2.79,2.99.26,8.3.36,8.77-4.45.47-4.89-5.15-6.34-8.12-7.15-2.19-.6-4.43-1-6.68-1.2-1.27-.11-3.78.24-4.38-1.52-.43-1.26.26-2.88.97-3.79,1.18-1.51,3.01-1.69,4.66-1.63,3.69.15,7.37,1.63,11,.03,1.58-.7,2.9-1.85,3.78-3.57.53-1.03-.01-2.2-.89-2.57-5.88-2.49-11.77-4.99-17.65-7.48,2.55-2.09,6.58-1.48,9.42-1.07,4.22.62,9.11.89,12.31-3.05.44-.54.6-1.47.23-2.13-1.59-2.88-4.13-4.26-6.9-4.95-2.77-.69-5.96-.64-8.55-2.09-1.55-.87-.81-2.2.37-3.05,1.47-1.06,3.39-1.37,5.08-1.41,3.85-.09,7.61,1.33,11.23,2.71.81.31,1.54-.37,1.82-1.22,1.31-4.07-1.55-7.96-4.51-9.61-2.91-1.62-6.8-1.31-9.27-3.95-.52-.55-1.07-1.34-.63-2.15.39-.72,1.2-1.13,1.83-1.48,1.67-.93,3.48-1.56,5.28-2,3.88-.94,7.91-.74,11.73.48.81.26,1.88-.51,1.78-1.6-.34-3.93-3.3-5.6-6.01-7.1-1.17-.65-2.53-1.28-3.43-2.43-1.07-1.36-.36-3.24.99-4.29,4.12-3.22,9.62.61,13.77,1.7,1.2.31,2.45.53,3.68.47,1.43-.07,2.01-1.37,2.11-2.95.17-2.55-1.26-4.92-2.99-6.27-2.18-1.7-5.02-1.65-7.18-3.32-1.4-1.08-2.73-3.85-.67-4.99,2.3-1.26,5.04.3,7.15,1.4,2.04,1.06,4.5,2.66,6.81,2.1,2.31-.56,3.31-3.29,2.64-5.82-.77-2.87-3.01-4.01-5.14-5.19-1.21-.67-4.37-3.03-2.3-4.77,1.81-1.53,4.08-.13,5.75.94,2.19,1.4,4.44,2.71,6.99,1.95,2.08-.62,3.77-2.65,3.51-5.31-.28-2.86-2.61-4.53-4.68-5.46-1.63-.73-4.2-1.17-5-3.23,1.14-1.16,2.62-1.43,4.16-1.48,2.01-.06,4.03.21,6.04-.06,1.04-.14,2.09-.45,2.66-1.59.54-1.08.33-2.36-.22-3.37-.67-1.22-1.72-2.04-2.66-2.93-.73-.69-1.46-1.37-2.19-2.05,2.29-1.42,4.82-2.1,7.45-2.1.71,0,1.36-1.06.88-1.82-.53-.85-1.06-1.7-1.59-2.55-.66-1.06-2.12-.13-1.53,1.06.14.27.27.55.41.82-2.97.09-5.86,1.23-8.36,3.18-.59.46-.89,1.63-.25,2.24.98.94,1.96,1.87,2.94,2.8.87.82,1.98,1.6,2.67,2.65.35.53.37.54-.08.71-.37.13-.88.1-1.27.12-.94.04-1.88,0-2.82-.03-1.67-.05-3.38-.09-5.02.4-1.28.38-3.64,1.61-3.85,3.4-.22,1.88,1.28,3.65,2.49,4.56,1.47,1.09,3.16,1.43,4.73,2.23,1.1.56,3.26,1.96,2.48,3.75-.6,1.38-2.47,1.51-3.57,1.17-1.99-.62-3.64-2.29-5.55-3.16-1.55-.71-3.32-.83-4.89-.11-1.52.71-2.72,2.16-2.88,4.14-.19,2.38,1.17,4.38,2.76,5.64,1.52,1.2,3.82,1.6,4.98,3.36.36.54.74,1.51.49,2.21-.33.92-1.36.72-2.03.53-4.02-1.13-7.52-4.77-11.87-3.69-2.03.5-3.85,2.24-3.96,4.82-.09,2.29,1.1,4.47,2.6,5.81,1.84,1.64,4.2,1.96,6.3,2.92,1.29.59,3.27,2.27,3.02,4.14-6.16-.26-12.81-6.51-18.64-1.47-2.18,1.89-3.41,5.34-1.78,8.2,1.12,1.98,3.09,3,4.85,3.98.77.43,1.88.96,2.78,1.68-5.46-.98-11.22-.12-16.17,2.76-1.18.68-2.32,1.69-2.86,3.14-.65,1.74-.21,3.58.77,5.01,1.91,2.76,5.05,3.5,7.83,4.3,1.97.57,5.44,2.06,5.87,4.76-2.72-1-5.47-1.86-8.32-2.15-3.06-.31-6.75.05-9.27,2.33-1.13,1.02-2.1,2.48-2.16,4.23-.06,1.77.83,3.25,2.08,4.14,2.22,1.59,5.15,1.79,7.65,2.25,2.14.4,4.64.85,6.28,2.63-3.14,2.45-7.7,1.07-11.2.73-4.13-.41-8.82.27-11.27,4.7-.56,1.01.03,2.21.89,2.57,5.88,2.49,11.76,4.98,17.63,7.47-2.18,1.58-5.53.91-7.84.55Z"/>
      <path class="cls-12" d="M150.42,191.06c-2.94-2.35-7.49-3.49-9.71.69-.82,1.55-1.09,3.63-.31,5.28.79,1.68,2.31,2.27,3.76,2.86.46.18,1.17.39,1.43.92.35.7-.32,1.37-.77,1.72-1.72,1.3-4.18-.03-6.06-.05-1.87-.02-3.65.92-4.67,2.83-.91,1.71-.86,3.9.43,5.32.75.82,1.76,1.12,2.7,1.46,1.01.36,1.98.84,2.9,1.45,1.02.66,1.95,1.45,2.81,2.34-.83-.19-1.65-.51-2.46-.86-1.66-.7-3.3-1.44-5.08-1.57-3.06-.22-6.13,2.14-6.28,6-.06,1.67.64,3.27,1.87,4.13,1.35.95,2.94.87,4.46.97,1.99.13,4.27,1.49,4.98,3.71-1.48-.13-2.95-.39-4.4-.82-1.98-.59-3.82-1.52-5.71-2.41-3.1-1.46-7.38-1.81-9.29,2.19-1.92,4.01,1.29,7.86,4.4,8.94,1.9.66,4.02.5,5.85,1.44.79.4,1.84,1.44,1.99,2.55-2.96-.38-5.92-.77-8.89-1.15-2.74-.36-6.54-1.46-8.34,1.85-.71,1.3-.83,2.96-.12,4.29.78,1.47,2.32,2.12,3.57,2.86,1.34.79,2.68,1.58,4.01,2.37-2.15.1-4.31.21-6.46.33-1.95.12-3.99.4-5.54,1.92-1.3,1.27-2.1,3.26-1.79,5.26.3,1.91,1.43,3.16,2.84,4.01-1.49-.09-2.97.23-4.33,1.25-2.43,1.81-3.54,5.41-1.93,8.43.99,1.86,2.51,2.89,4.2,3.45-2.71-.07-5.34.48-7.77,2.48-2.47,2.03-4.44,6.54-2.12,9.67,1.12,1.51,2.83,1.87,4.41,2.29,1.57.42,3.14.84,4.69,1.36,2.65.9,5.38,2.17,7.38,4.46-2.13.72-4.51.06-6.69-.39-2.98-.61-6.73-1.4-9.43.7-1.34,1.04-2.48,2.67-2.65,4.61-.18,2.08.92,3.82,2.53,4.55,1.55.71,3.39.67,5.03.75,1.93.1,3.86.12,5.78.37,1.75.22,3.54.68,5.11,1.64.6.36,1.12.77,1.53,1.42.2.31.73,1.22.53,1.67-.2.45-1.19.35-1.5.35-1.02,0-2.04-.13-3.04-.34-2-.42-3.97-.99-5.99-1.23-3.65-.42-7.36.47-10.65,2.33-2.47,1.39-7.38,4.77-4.78,8.63,2.2,3.27,6.96,2.44,10.06,2.37,2.33-.05,4.88-.11,6.98,1.05-2.07.61-4.3.58-6.4.92-2.68.44-5.52,1.55-7.26,4.13-.9,1.34-1.61,3.11-1.19,4.84.45,1.83,2.08,2.63,3.48,3.14,2.67.96,5.52.79,8.27.6,2.57-.18,5.34-.52,7.81.55.52.23,2.46,1.24,2.26,2.03-.24.96-2.11,1.29-2.77,1.38-2.91.39-5.84.36-8.73.96-2.62.54-5.88,1.84-7.46,4.56-2.37,4.09,2.44,6.14,5.04,6.53,3,.45,6.13-.31,9.09.55,1.05.3,2.69.82,2.1,2.44-.51,1.39-1.87,2.08-3.04,2.42-3.03.9-6.21-.03-9.25.93-2.7.85-5.05,3.38-5.38,6.78-.31,3.17,1.66,5.8,4.25,6.3,2.66.52,5.21-.6,7.85-.67,1.59-.04,3.21.3,4.68,1.04.53.27,1.32.62,1.71,1.15.35.49.11.81-.29,1.24-.98,1.06-2.45,1.36-3.7,1.71-1.38.39-2.78.7-4.15,1.13-2.64.84-5.36,2.24-6.95,5-1.83,3.19.07,6.3,2.89,7.05,1.56.41,3.22.41,4.81.55,1.79.15,3.57.31,5.36.46,1.85.16,3.71.32,5.56.48,1.99.17,1.98-3.49,0-3.66-3.5-.3-7-.6-10.51-.9-1.48-.13-3.08-.07-4.53-.49-1.06-.31-1.58-.7-.75-1.87,3.54-4.96,10.48-2.53,14.27-7,.98-1.16,1.55-2.79,1.15-4.42-.43-1.76-1.81-2.8-3.14-3.52-2.86-1.55-5.83-1.87-8.92-1.32-1.67.3-4.79,1.42-6.12-.35-.66-.88-.41-2.08.07-2.99.69-1.3,1.77-1.94,3.02-2.27,2.92-.78,5.96.04,8.89-.83,2.62-.77,5.3-3.03,5.47-6.47.2-4.03-3.55-5.46-6.29-5.85-2.89-.41-5.89.3-8.74-.47-.33-.09-.66-.19-.98-.33-.17-.07-.62-.43-.81-.43,0,0,0,0,0,0,.32-.22.6-.65.92-.9,1.05-.85,2.23-1.38,3.46-1.73,2.67-.77,5.45-.75,8.17-1.02,2.47-.25,5.67-.85,6.7-3.98,1.1-3.34-1.98-5.74-4.25-6.74-5.04-2.24-10.51.47-15.62-1.03-.5-.15-1.2-.29-1.63-.66-.32-.28-.26-.05-.2-.49.04-.32.3-.72.46-.98.66-1.07,1.73-1.77,2.77-2.2,2.66-1.1,5.51-.9,8.26-1.44,1.5-.29,2.95-.85,4.26-1.77.91-.63.99-2.03.32-2.92-4.28-5.66-11.28-3.37-16.89-4.02-.55-.06-1.13-.19-1.61-.54-.51-.38-.45-.27-.09-.7,1.12-1.34,2.78-2.34,4.23-3.06,3.23-1.61,6.73-1.93,10.16-1.19,1.93.42,3.83.96,5.79,1.19,1.66.19,3.66.28,5.02-1.06,2.62-2.58.56-7.04-1.72-8.82-2.98-2.31-6.84-2.68-10.29-2.86-1.81-.1-3.62-.12-5.43-.33-.93-.1-2.38-.28-1.62-1.69,1.7-3.15,6.38-1.61,8.87-1.1,3.32.69,6.94,1.27,9.86-1.21.66-.56,1.11-1.69.58-2.6-3.44-5.8-9.32-7.61-14.87-9.1-.9-.24-2.95-.35-3.31-1.57-.33-1.12.58-2.56,1.24-3.24,2.29-2.34,5.8-2.38,8.65-2.04,4.08.49,8.03,2,12.17,1.65,1.15-.1,2.16-1.6,1.41-2.91-2.13-3.76-5.46-5.85-9.27-6.06-1.94-.11-4.05.33-5.92-.45-1.04-.44-2.4-1.46-2.29-2.96.1-1.4,1.47-2.24,2.5-2.5,1.71-.43,3.5.45,5.07,1.17,3.34,1.53,7.27,3.22,10.56.55.64-.52,1.11-1.7.57-2.56-1.61-2.54-3.89-3.73-6.47-4.37-2.41-.6-5.38-.65-7.48-2.32-1.05-.84-.91-2.04.08-2.9,1.28-1.1,3.28-.91,4.78-.98,3.75-.19,7.51-.37,11.26-.56,1.46-.07,2.28-2.6.8-3.47-2.45-1.44-4.9-2.88-7.34-4.32-1.19-.7-2.39-1.39-3.58-2.11-.67-.4-1.46-.74-.58-1.42.86-.67,2.39-.22,3.34-.11,1.3.16,2.59.31,3.89.47,2.73.33,5.46.65,8.19.99.49.06,1.06-.37,1.29-.87,1.63-3.61-.71-7.46-3.63-8.74-1.77-.78-3.67-.78-5.49-1.31-1.18-.35-2.93-1.26-3.15-2.89-.21-1.54,1.31-2.44,2.38-2.6,1.75-.26,3.55.86,5.11,1.63,3.56,1.75,7.33,2.68,11.18,2.77.84.02,1.39-.81,1.46-1.73.25-3.24-1.56-6.07-3.87-7.58-1.18-.77-2.46-1.23-3.8-1.39-.98-.12-2.9.28-3.61-.75-.57-.82.11-2.13.68-2.69,1.06-1.06,2.64-.76,3.87-.38,3.25,1,6.35,3.23,9.79,1.83,1.14-.46,1.36-1.88.66-2.94-2.12-3.18-4.95-5.57-8.15-7.01-.73-.33-3.21-.56-2.55-1.95.84-1.74,2.73-1.34,4.13-1.12,1.77.28,3.47.5,5.13-.49,1.28-.76,2.39-2.21,2.56-3.93.16-1.71-.67-3.23-1.91-4.04-1.06-.7-2.7-.74-3.57-1.77-.89-1.04-.12-2.93.75-3.64,1.73-1.4,4.14-.1,5.69,1.03,1.18.87,2.21-1.28,1.08-2.19ZM119.85,276.21c.21.1.41.23.61.35-1.79-.26-3.6-.68-5.41-1.01,1.63-.02,3.26-.05,4.8.66ZM123.02,265.14c-1.61.09-3.31-.68-4.85-1.44,1.58.29,3.4.57,4.85,1.44Z"/>
      <g>
        <path class="cls-12" d="M153.6,239.44s0,.02-.02.02c0,0,.01-.01.02-.02,0,0,0,0,0,0Z"/>
        <path class="cls-12" d="M136.86,379.27c-2.66,1.02-5.44,1.79-7.92,3.39-2.21,1.43-5.87,5.01-3.92,8.3.88,1.5,2.58,1.9,4.03,1.98,1.85.1,3.67-.09,5.53.18,1.5.21,2.97.6,4.41,1.11.1,0,.19.01.29.02,2.19-.12,4.39-.22,6.58-.32-2.36-1.57-4.91-2.75-7.54-3.5-1.75-.5-3.55-.81-5.35-.93-1.53-.11-3.18.25-4.68-.11-.18-.04-.79-.15-.87-.38-.14-.37.86-1.47,1.06-1.7.84-.97,1.88-1.66,2.94-2.23,2.34-1.25,4.9-1.87,7.31-2.89,2.77-1.18,5.36-2.87,6.92-5.93.35-.69.2-1.52-.23-2.09-1.91-2.55-4.89-3.35-7.67-3.24-1.69.07-3.35.43-5.03.61-.64.07-3.25.43-3.4-.32-.22-1.09,1.52-2.28,2.17-2.6,1.53-.74,3.2-1.12,4.83-1.41,3-.52,6.07-.64,9.01-1.61,3.08-1.01,5.88-2.86,7.74-6,.34-.57.24-1.63-.23-2.08-2.76-2.66-6.11-3.59-9.62-3.65-3.38-.06-6.74.85-10.11.71-1.23-.05-2.7-.29-3.68-1.26-.96-.96-.81-2.43,0-3.46,2.64-3.36,7.46-.82,10.75-.88,4.16-.08,8.17-2.12,11.15-5.53.71-.82.46-2.09-.29-2.7-5.79-4.68-13.01-2.83-19.51-4.33-.74-.17-3.4-.55-3.09-1.98.34-1.58,2.54-2.22,3.66-2.56,3.34-1.02,6.82-1.05,10.24-1.39,3.81-.38,7.62-1.12,10.91-3.54.88-.64.97-1.95.31-2.84-4.17-5.6-10.74-3.42-16.13-2.75-2.51.31-5.19.23-7.32-1.59-1.76-1.5-2.92-5.01-.24-6.11,2.52-1.04,5.4-.91,8.02-1.08,2.83-.18,5.69-.52,8.29-1.93,1.17-.63,2.47-1.49,3.06-2.9.61-1.44.21-3.06-.65-4.22-.91-1.23-2.17-1.89-3.41-2.51-1.52-.75-3.09-1.35-4.69-1.78-1.48-.39-3-.64-4.52-.76-1.51-.11-2.99.05-4.5.06-.64,0-1.79.08-2.24-.58-.67-.99.76-2.88,1.33-3.52,3.72-4.15,9.89-2.92,14.5-4.08,2.24-.56,6.48-2.09,6.2-5.56-.24-2.94-3.11-4.79-5.23-5.57-2.37-.87-4.9-.93-7.27-1.8-.87-.32-1.66-.79-1.48-1.99.17-1.12.93-2.12,1.71-2.73,1.25-.98,2.95-1.12,4.4-1.41,1.57-.32,3.22-.72,4.56-1.8,1.38-1.1,1.87-3.01.94-4.71-.83-1.5-2.46-2.4-3.8-3.1-.8-.41-1.62-.77-2.46-1.04-.61-.2-1.55-.24-2.03-.79-.66-.76,0-2.13.46-2.79.92-1.31,2.38-1.58,3.72-1.86,1.61-.34,3.16-.63,4.66-1.46.85-.47.76-1.77.27-2.48-.9-1.3-2.28-1.89-3.63-2.24-1.1-.28-2.69-.32-3.56-1.27-1.12-1.22.19-3.08,1.22-3.65,1.87-1.03,4.21-.29,6.18-.27,2.43.03,8.19-1.67,6.13-5.86-1.26-2.55-4.24-2.32-6.28-3.33-.41-.2-.91-.5-1.11-1-.36-.9.38-1.81.96-2.29.97-.79,2.15-.78,3.28-.77,1.33.02,2.61.06,3.94-.19,1.25-.24,1.18-2.59,0-2.9-1.44-.37-3.36-.74-4.33-2.21-.61-.92-.86-2.56.16-3.21,1.02-.64,2.48-.35,3.59-.61,1.16-.26,2.18-1.04,2.61-2.38.93-2.91-1.57-4.71-2.8-6.75-1.85-3.07,2.14-4.62,4.06-5.1,1.18-.3.93-2.11,0-2.54-1.54-.71-2.78-1.97-3.69-3.55,1.47-1.03,3.01-1.58,4.76-1.91.51-.1.72-.8.63-1.32-.33-2.09-2.28-3.45-3.98-2.68-.81.37-.51,1.84.37,1.57.5-.15,1.06.02,1.42.42-1.87.26-3.73,1.15-5.23,2.42-.5.42-.68,1.09-.39,1.76.73,1.69,1.75,3.1,2.99,4.19-1.44.69-2.76,1.75-3.41,3.37-1.12,2.77.58,5.08,2.08,7.02.4.52,1.31,1.46.94,2.25-.4.86-2,.65-2.68.72-2.44.23-4.62,1.73-4.42,4.99.1,1.59.66,2.79,1.48,3.72-.69.08-1.37.25-2.04.61-1.67.91-3.15,2.88-3.04,5.16.18,3.92,3.94,4.46,6.41,5.33.39.14.92.32,1.19.59.04.04.07.08.09.12.04-.04.09-.08.17-.13-.06.04-.11.08-.17.14.04.07.07.13.11.16.18.16-.34.11-.13-.15-.14.14-.28.31-.42.41-1.61,1.15-3.72.77-5.49.64-2.2-.16-4.52-.08-6.31,1.63-1.4,1.34-2.35,3.57-1.86,5.71.49,2.1,2.11,3.19,3.78,3.7.55.17,1.17.27,1.78.4-1.77.34-3.58.54-5.06,1.86-1.72,1.52-3.05,4.38-2.18,6.92.48,1.41,1.53,2.22,2.72,2.66,1.53.56,3.02.97,4.44,1.91.23.15,1.66.97,1.58,1.4.02-.11-.61.29-.63.31-.36.21-.73.37-1.11.5-1.41.49-2.88.62-4.32.96-2.59.6-4.91,2.24-5.94,5.24-1.06,3.1.37,5.86,2.91,6.96,2.39,1.03,5.01,1.03,7.45,1.84,1.05.35,2.08.86,2.85,1.8.08.1.51.56.51.63.02.14-.28.36-.51.53-.6.45-1.24.8-1.92,1.07-5.12,2.05-10.83.53-15.64,3.95-2.09,1.48-4.31,4.34-4.02,7.44.3,3.27,3.16,4.1,5.5,4.03,3.18-.09,6.17-.05,9.26.96,1.48.48,3.01,1.09,4.36,1.97.29.19,1.27.81,1.25,1.31-.02.44-1.08.96-1.33,1.11-5.13,3.14-11.37.68-16.66,3.11-2.77,1.28-4.09,4.6-3.08,7.96.89,2.96,3.02,4.91,5.46,5.96,5.74,2.47,11.68-1.93,17.42.1.45.16.86.38,1.25.63-6.17,3.09-13.5,1.2-19.83,3.86-1.63.69-3.26,1.89-4.06,3.77-.85,2-.31,4.27,1.2,5.58,1.42,1.24,3.36,1.59,5.06,1.87,1.87.31,3.75.42,5.63.51,3.41.15,6.95.24,10.07,1.88-2.58,2.21-5.74,3.29-8.97,2.98-3.92-.38-8.27-1.95-11.38,1.93-2.45,3.05-1.73,7.65,1.48,9.45,3.2,1.8,6.82.93,10.19.61,3.5-.34,7.52-.61,10.65,1.57-4,4.9-11.38,3.93-16.53,5.34-2.74.75-6.07,2.3-6.69,5.98-.29,1.73.42,3.39,1.77,4.14,1.5.84,3.45.58,5.05.38,2.88-.36,6.57-1.36,9.11.72-1.42,1.9-3.52,2.88-5.55,3.66Z"/>
      </g>
      <path class="cls-12" d="M158.23,392.86c.98.2,1.96.33,2.94.44,3.15-.1,6.29-.2,9.44-.33,1.76-.32,3.51-.77,5.23-1.39,2.13-.77,1.21-4.75-.92-3.95-4.73,1.79-9.76,2.44-14.7,1.69-.94-.14-2.15-.21-3.02-.72-.66-.39.11-.9.54-1.24,1.82-1.44,4.24-2.11,6.34-2.75,2.33-.71,4.69-1.23,7.03-1.85,2.11-.56,4.63-1,6.49-2.38,1.84-1.37,2.63-4.2.97-6.22-1.55-1.88-4.16-2.13-6.25-1.91-2.52.27-4.94,1.32-7.47,1.47-1.32.07-2.88-.05-4.05-.88,2.69-1.99,5.94-2.79,9-3.59,1.89-.49,3.79-.98,5.63-1.7,1.71-.67,3.93-1.47,5.01-3.29,1.2-2.01.5-4.6-1.09-5.99-1.78-1.56-4.05-1.09-6.09-.75-2.35.39-4.71.9-7.07,1.13-.87.09-1.98.17-2.72-.49-.6-.53-.81-1.26-.22-1.88.75-.8,1.96-1.17,2.87-1.59,1.29-.6,2.58-1.2,3.87-1.79,2.65-1.23,5.29-2.46,7.95-3.66.7-.32,1.35-1.2,1.04-2.16-1.04-3.28-3.72-4.87-6.57-5.11-1.69-.14-3.4.31-5.05.68-1.4.32-2.96.79-4.36.3-1.01-.35-1.7-1.07-.78-2.14.86-1,2.17-1.47,3.31-1.76,2.56-.66,5.23-.4,7.83-.61,2.94-.24,5.85-1.04,7.93-3.68.55-.7.64-1.9,0-2.59-2.51-2.74-5.65-4.59-9.05-5.18-1.72-.3-3.39-.27-5.11.01-.97.16-3.73.83-4.1-.92-.25-1.2,1.99-2.36,2.71-2.67,1.44-.63,2.98-.87,4.49-1.08,2.54-.34,7.42-.17,8.05-4.05.65-4.05-3.32-6.3-6.1-6.5-1.71-.12-3.39.44-5.04.91-1.54.44-3.32,1-4.8.08-.89-.55-1.95-1.81-1.17-3.01.87-1.32,2.71-1.34,3.97-1.42,1.79-.12,3.65-.27,5.11-1.63,1.12-1.05,2.02-2.73,2.02-4.47,0-2.05-1.25-3.5-2.78-4.18-1.16-.52-3.03-.48-3.83-1.75-.85-1.36-.21-3.43.68-4.51,1.29-1.56,3.24-2.27,4.94-2.97,1.14-.47.69-2.45-.5-2.14-3.12.81-6.55,2.18-7.67,6.12-.45,1.58-.43,3.46.29,4.94.75,1.54,2.08,2.26,3.47,2.72.83.27,2.83.51,2.62,1.99-.28,2.01-2.9,2.11-4.17,2.17-3.17.17-7.44,1.13-7.69,5.8-.23,4.3,3.84,6.88,7.01,6.65,1.97-.15,3.81-.93,5.74-1.34,1.24-.26,2.77-.27,3.87.58.2.16.4.33.56.56.13.2.22.69.33.64-.32.43-1.43.5-1.83.58-1.63.33-3.3.47-4.94.74-2.97.5-7.03,1.8-8.28,5.47-.75,2.21.24,4.55,1.89,5.75,1.97,1.43,4.18.79,6.32.52,3.33-.41,6.68.65,9.4,2.9-1.61,1.11-3.58,1.33-5.48,1.42-2.81.13-5.72-.02-8.44.96-2.6.93-6.01,3.52-4.93,7.31,1.1,3.86,5.26,3.82,8,3.27,1.91-.39,3.89-1.14,5.85-.86.85.12,1.83.47,2.55,1.13-4.08,1.81-8.23,3.48-12.22,5.53-1.71.88-3.33,2.45-3.31,4.86.02,2.51,1.82,4.55,3.8,5.1,2.33.65,4.89-.13,7.21-.51,1.13-.18,2.25-.37,3.38-.55.94-.15,2.29-.54,3.18,0,1.8,1.11-1.27,2.21-2.1,2.57-1.87.79-3.82,1.31-5.76,1.82-4.36,1.14-8.71,2.33-12.22,5.78-.5.5-.63,1.65-.25,2.29,2.61,4.41,7.35,4.31,11.38,3.34,2.26-.55,5.01-1.59,7.28-.55.86.39.77.47.09.9-.97.62-2.18.88-3.25,1.2-4.9,1.47-9.96,2.2-14.64,4.57-1.92.97-4.26,2.62-4.18,5.46.08,2.94,2.53,3.95,4.59,4.36Z"/>
      <path class="cls-12" d="M190.62,351.12c2.81-.1,5.68-1.27,8.49-.7.95.19,1.92.57,2.67,1.3.2.2.39.6.59.86-.03.02-.04.03-.07.06-.39.3-.83.51-1.26.7-2.56,1.11-5.32,1.3-7.79,2.75-2.19,1.29-3.96,3.59-4.16,6.56-.17,2.57.9,5.31,3.01,6.28,2.59,1.2,5.48-.83,8.04-1.4,1.08-.24,2.24-.36,3.33-.1.82.2,2.32.81,2.51,1.99.24,1.52-4.46,2.28-5.4,2.45-2.35.43-4.74.58-7.04,1.29-2.15.66-5.06,2.02-6.14,4.5-1.48,3.39,1.89,6.07,4.26,6.82,2.87.91,5.87.19,8.65-.76,1.36-.46,2.95-1.13,4.37-.57.78.31,1.63,1.04,1.37,2.12-.25,1.07-1.31,1.79-2.09,2.27-1.23.76-2.62,1.1-3.97,1.44-3.45.88-6.96,1.27-10.49,1.23-1.04-.01-1.61.85-1.71,1.8,2.96-.18,5.93-.36,8.9-.51,3.01-.15,6.04-.28,9.09-.36.48-.3.94-.63,1.37-1.03,2.05-1.85,3.2-4.84,1.97-7.75-1.31-3.1-4.49-3.89-7.14-3.41-2.72.49-5.2,1.94-8.01,1.77-1.03-.06-2.08-.36-2.93-1.07-.12-.1-.22-.22-.33-.33.09-.1.18-.21.28-.3.5-.47,1.07-.86,1.64-1.17,2.12-1.15,4.55-1.38,6.83-1.73,2.55-.39,5.11-.84,7.44-2.21,2.75-1.62,3.26-5.28,1.19-7.96-1.84-2.39-4.84-2.95-7.43-2.58-1.28.18-2.53.51-3.77.94-.97.33-2.78,1.49-3.73.81-.57-.41-.73-1.46-.69-2.17.08-1.24.81-2.18,1.66-2.83,2.32-1.79,5.25-1.82,7.8-2.91,1.19-.5,2.47-1.13,3.29-2.3,1.07-1.52.74-3.39-.2-4.87-1.56-2.47-4.13-3.51-6.65-3.7-1.39-.11-2.79.13-4.17.35-1.48.24-3.21.76-4.71.43-2.11-.47,1.73-5.15,2.37-5.77,1.98-1.93,4.28-3.35,6.27-5.28,1.01-.98,2.1-2.14,2.57-3.63.58-1.87-.09-3.49-1.07-4.96-1.96-2.93-4.38-5.4-7.16-7.19-1.04-.67-1.82,1.04-.91,1.83,2.24,1.97,4.33,4.32,5.93,7.04.28.47.77,1.13.72,1.76-.05.61-.61,1.14-.96,1.52-.82.88-1.75,1.61-2.69,2.31-3.61,2.71-8.55,5.6-9,11.31-.28,3.64,2.38,5.17,5.05,5.08Z"/>
      <path class="cls-12" d="M181.53,180.75c-.7-1.64-2.15-1.64-3.41-2.19-.08-.04-.29-.08-.35-.17-.16-.22-.08-.04-.08-.21,0-.33.55-.98.7-1.25.54-.95,1.09-1.88,1.57-2.87.18-.36.16-.95-.13-1.23-1.06-1.03-2.48-1.73-3.85-1.1-.65.3-.59,1.44.17,1.47.7.03,1.31.12,1.85.49-.33.47-.65.95-.97,1.43-.47.71-1.08,1.43-1.39,2.26-.49,1.34.1,2.65,1.13,3.32.52.34,1.08.49,1.65.65.3.09.53.23.78.38-.14.08-.27.17-.41.25-1.42.86-3.2,1.56-4.44,2.77-1.13,1.11-1.2,2.9-.36,4.26.41.67.97,1.17,1.59,1.54.49.3,1.3.52,1.63,1.08.79,1.35-1.29,3.13-1.97,3.87-1.07,1.15-1.92,2.49-2.17,4.2-.31,2.17.09,4.43.3,6.59.14,1.39.03,4.96,1.34,5.81.31.63,1.31.84,1.43-.1,0-.04,0-.07.01-.11.93-1,.38-3.43.25-4.65-.2-1.95-.52-3.92-.58-5.88-.06-1.81.62-2.79,1.68-3.98.99-1.11,1.93-2.27,2.31-3.86.37-1.53.08-3.13-.91-4.24-.42-.46-3.1-1.7-2.92-2.34.12-.42,1.55-1.02,1.89-1.24.76-.48,1.52-.96,2.27-1.45,1.09-.71,2.01-1.97,1.37-3.5Z"/>
      <path class="cls-12" d="M199.96,228.32c1.07-.91,2.12-1.78,2.91-3.04,1.41-2.24,1.06-5.4-1.09-6.77-1.56-.99-3.41-.82-5.11-1.08-.55-.08-1.33-.26-1.62-.6-.66-.78.24-1.98.91-2.5,1.14-.87,2.6-1.11,3.83-1.77,1.16-.61,2.18-1.52,2.82-2.84.68-1.41.91-3.17.19-4.62-.72-1.45-2.15-2.17-3.44-2.68-2.84-1.13-5.89-.96-8.67.23-.02-.51.26-1.17.45-1.46.8-1.16,2.41-1.51,3.51-2.07,1.93-.98,3.97-3.18,3.53-5.94-.42-2.66-2.67-3.44-4.67-3.03-1.64.34-3.67,2.15-5.38,1.45-1.05-.43-.21-1.64.42-2.1,1.05-.76,2.38-.84,3.52-1.39,1.94-.93,3.75-3.69,2.52-6.19-1.38-2.8-4-1.38-5.95-.59-.32.13-1.55.6-1.69-.01-.12-.48,1.34-1.66,1.57-1.91,1.65-1.74,2.46-4.6.72-6.73-1.56-1.91-4.45-1.39-5.35,1.07-.41,1.12.78,1.98,1.39.96.55-.91,1.87-1.34,2.52-.35.67,1.02.14,1.99-.55,2.7-1.27,1.33-3.23,2.63-2.73,5.03.55,2.61,3.1,2.82,4.89,2.05.61-.26,2.14-1.43,2.82-.94.97.7-.89,2.08-1.32,2.26-2.2.93-4.97,1.28-5.71,4.44-.6,2.57,1.11,4.5,3.15,4.7,2.14.21,3.77-1.33,5.8-1.65.63-.1,1.56-.08,1.6.9.06,1.42-1.53,2.28-2.42,2.67-2.13.95-4.41,1.81-5.13,4.68-.25,1.01-.24,2.14.15,3.1.2.5.49.93.87,1.26.71.64,1.21.47,1.99.09,2.47-1.2,5.26-1.3,7.78-.19.8.35,1.99.91,1.62,2.15-.42,1.41-1.85,1.88-2.92,2.24-2.36.8-4.9,1.86-5.77,4.87-.71,2.44.41,4.81,2.36,5.73,1.53.72,3.2.57,4.81.83,1.34.21,2.28.83.99,2.35-.9,1.06-2.1,1.65-3.06,2.62-1.01,1.03-1.89,2.43-2.07,4.02-.19,1.72.53,3.25,1.74,4.19.73.57,1.98.8,2.26,1.88.28,1.06-.28,2.36-.74,3.22-.63,1.18-1.59,2.03-2.49,2.91-2.02,1.98-3.83,4.07-4.09,7.3-.16,2.06,2.73,2.53,3.07.49.48-2.84,2.74-4.44,4.46-6.23,1.72-1.79,3.18-4.54,3.11-7.33-.03-1.41-.47-2.74-1.32-3.75-.37-.44-.83-.78-1.28-1.07-.35-.22-1.23-.52-1.39-.94-.35-.89,1.17-2.23,1.66-2.64Z"/>
    </g>
    <g>
      <polygon class="cls-20" points="337.7 143.6 375.87 143.81 357.23 240.65 324.14 230.72 337.7 143.6"/>
      <polygon class="cls-14" points="375.87 143.81 379.49 143.99 360.02 240.76 357.23 240.65 375.87 143.81"/>
      <path class="cls-15" d="M340.02,151.57l-10.92,63.86c-.43,2.52,1.35,4.9,3.93,5.25l20.67,2.76c2.43.32,4.69-1.28,5.14-3.64l12.67-66.24c.53-2.76-1.6-5.32-4.46-5.37l-22.42-.38c-2.28-.04-4.24,1.56-4.62,3.77Z"/>
      <polygon class="cls-2" points="337.58 192.31 335.96 203.48 356.25 206.41 358.32 194.62 337.58 192.31"/>
      <polygon class="cls-1" points="341.63 159.19 336.83 185.69 362.24 188.7 367.08 160.43 341.63 159.19"/>
      <g class="cls-5">
        <polygon class="cls-20" points="350.33 154.9 350.17 155.74 353.02 155.88 353.6 152.57 354.95 154.3 357.04 152.73 356.43 156.19 359.36 156.34 359.4 155.53 357.43 155.36 357.96 151.2 355.15 153.08 353.24 151.34 352.41 155.01 350.33 154.9"/>
        <g>
          <polygon class="cls-20" points="368.02 153.01 368.13 152.35 365.44 152.22 365.33 152.88 368.02 153.01"/>
          <polygon class="cls-20" points="365.04 154.58 364.95 155.1 367.61 155.37 367.72 154.72 365.04 154.58"/>
          <polygon class="cls-20" points="367.8 154.3 367.91 153.64 365.24 153.38 365.11 154.16 367.8 154.3"/>
        </g>
        <polygon class="cls-20" points="343.52 151.48 341.4 153.43 342.8 155.15 343.15 154.79 342.41 153.48 344.31 153.57 344.33 153.07 342.88 153 344.01 151.84 343.52 151.48"/>
      </g>
      <polygon class="cls-3" points="345 196.48 349.89 197.03 349.34 201 348.44 200.95 348.57 198.36 345.28 201.11 344.42 200.44 347.59 197.93 344.89 197.36 345 196.48"/>
      <g>
        <g>
          <polygon class="cls-20" points="351.87 165.82 350.48 165.65 350.73 164.27 352.11 164.44 351.87 165.82"/>
          <polygon class="cls-1" points="353.25 165.99 351.87 165.82 352.11 164.44 353.5 164.61 353.25 165.99"/>
          <polygon class="cls-20" points="354.62 166.16 353.23 165.99 353.48 164.61 354.87 164.78 354.62 166.16"/>
          <polygon class="cls-20" points="356.01 166.33 354.62 166.16 354.87 164.78 356.25 164.95 356.01 166.33"/>
          <polygon class="cls-20" points="351.62 167.2 350.24 167.03 350.48 165.65 351.87 165.82 351.62 167.2"/>
          <polygon class="cls-20" points="353.01 167.37 351.62 167.2 351.87 165.82 353.25 165.99 353.01 167.37"/>
          <polygon class="cls-1" points="354.37 167.54 352.99 167.37 353.23 165.99 354.62 166.16 354.37 167.54"/>
          <polygon class="cls-1" points="355.76 167.71 354.37 167.54 354.62 166.16 356.01 166.33 355.76 167.71"/>
          <polygon class="cls-20" points="351.38 168.58 349.99 168.41 350.24 167.03 351.62 167.2 351.38 168.58"/>
          <polygon class="cls-1" points="352.76 168.75 351.38 168.58 351.62 167.2 353.01 167.37 352.76 168.75"/>
          <polygon class="cls-20" points="354.13 168.92 352.74 168.75 352.99 167.37 354.37 167.54 354.13 168.92"/>
          <polygon class="cls-1" points="355.52 169.09 354.13 168.92 354.37 167.54 355.76 167.71 355.52 169.09"/>
          <polygon class="cls-1" points="351.13 169.96 349.75 169.79 349.99 168.41 351.38 168.58 351.13 169.96"/>
          <polygon class="cls-20" points="352.52 170.13 351.13 169.96 351.38 168.58 352.76 168.75 352.52 170.13"/>
          <polygon class="cls-1" points="353.88 170.3 352.5 170.13 352.74 168.75 354.13 168.92 353.88 170.3"/>
          <polygon class="cls-20" points="355.27 170.47 353.88 170.3 354.13 168.92 355.52 169.09 355.27 170.47"/>
          <polygon class="cls-1" points="350.89 171.34 349.5 171.17 349.75 169.79 351.13 169.96 350.89 171.34"/>
          <polygon class="cls-20" points="352.27 171.52 350.89 171.34 351.13 169.96 352.52 170.13 352.27 171.52"/>
          <polygon class="cls-20" points="353.64 171.68 352.25 171.51 352.5 170.13 353.88 170.3 353.64 171.68"/>
          <polygon class="cls-20" points="355.03 171.85 353.64 171.68 353.88 170.3 355.27 170.47 355.03 171.85"/>
          <polygon class="cls-20" points="350.64 172.73 349.26 172.56 349.5 171.17 350.89 171.34 350.64 172.73"/>
          <polygon class="cls-20" points="352.03 172.9 350.64 172.73 350.89 171.34 352.27 171.52 352.03 172.9"/>
          <polygon class="cls-1" points="353.39 173.06 352.01 172.89 352.25 171.51 353.64 171.68 353.39 173.06"/>
          <polygon class="cls-1" points="354.78 173.23 353.39 173.06 353.64 171.68 355.03 171.85 354.78 173.23"/>
          <polygon class="cls-1" points="350.4 174.11 349.01 173.94 349.26 172.56 350.64 172.73 350.4 174.11"/>
          <polygon class="cls-20" points="351.78 174.28 350.4 174.11 350.64 172.73 352.03 172.9 351.78 174.28"/>
          <polygon class="cls-20" points="353.15 174.44 351.76 174.27 352.01 172.89 353.39 173.06 353.15 174.44"/>
          <polygon class="cls-20" points="354.54 174.61 353.15 174.44 353.39 173.06 354.78 173.23 354.54 174.61"/>
          <polygon class="cls-20" points="350.15 175.49 348.77 175.32 349.01 173.94 350.4 174.11 350.15 175.49"/>
          <polygon class="cls-20" points="351.54 175.66 350.15 175.49 350.4 174.11 351.78 174.28 351.54 175.66"/>
          <polygon class="cls-20" points="352.9 175.83 351.52 175.65 351.76 174.27 353.15 174.44 352.9 175.83"/>
          <polygon class="cls-1" points="354.29 176 352.9 175.83 353.15 174.44 354.54 174.61 354.29 176"/>
          <polygon class="cls-20" points="349.92 176.82 348.53 176.65 348.77 175.27 350.16 175.44 349.92 176.82"/>
          <polygon class="cls-1" points="351.3 176.99 349.92 176.82 350.16 175.44 351.55 175.61 351.3 176.99"/>
          <polygon class="cls-20" points="352.67 177.16 351.28 176.99 351.53 175.6 352.91 175.77 352.67 177.16"/>
          <polygon class="cls-20" points="354.05 177.33 352.67 177.16 352.91 175.77 354.3 175.95 354.05 177.33"/>
          <polygon class="cls-20" points="349.67 178.2 348.28 178.03 348.53 176.65 349.92 176.82 349.67 178.2"/>
          <polygon class="cls-1" points="351.06 178.37 349.67 178.2 349.92 176.82 351.3 176.99 351.06 178.37"/>
          <polygon class="cls-20" points="352.42 178.54 351.04 178.37 351.28 176.99 352.67 177.16 352.42 178.54"/>
          <polygon class="cls-1" points="353.81 178.71 352.42 178.54 352.67 177.16 354.05 177.33 353.81 178.71"/>
          <polygon class="cls-20" points="349.43 179.58 348.04 179.41 348.28 178.03 349.67 178.2 349.43 179.58"/>
          <polygon class="cls-20" points="350.81 179.75 349.43 179.58 349.67 178.2 351.06 178.37 350.81 179.75"/>
          <polygon class="cls-20" points="352.18 179.92 350.79 179.75 351.04 178.37 352.42 178.54 352.18 179.92"/>
          <polygon class="cls-20" points="353.56 180.09 352.18 179.92 352.42 178.54 353.81 178.71 353.56 180.09"/>
          <polygon class="cls-20" points="349.18 180.96 347.79 180.79 348.04 179.41 349.43 179.58 349.18 180.96"/>
          <polygon class="cls-1" points="350.57 181.13 349.18 180.96 349.43 179.58 350.81 179.75 350.57 181.13"/>
          <polygon class="cls-20" points="351.93 181.3 350.55 181.13 350.79 179.75 352.18 179.92 351.93 181.3"/>
          <polygon class="cls-20" points="353.32 181.47 351.93 181.3 352.18 179.92 353.56 180.09 353.32 181.47"/>
          <polygon class="cls-20" points="345.36 170.67 343.98 170.5 344.22 169.11 345.61 169.29 345.36 170.67"/>
          <polygon class="cls-1" points="346.75 170.84 345.36 170.67 345.61 169.29 347 169.46 346.75 170.84"/>
          <polygon class="cls-1" points="348.12 171 346.73 170.83 346.97 169.45 348.36 169.62 348.12 171"/>
          <polygon class="cls-20" points="349.5 171.17 348.12 171 348.36 169.62 349.75 169.79 349.5 171.17"/>
          <polygon class="cls-20" points="345.12 172.05 343.73 171.88 343.98 170.5 345.36 170.67 345.12 172.05"/>
          <polygon class="cls-20" points="346.5 172.22 345.12 172.05 345.36 170.67 346.75 170.84 346.5 172.22"/>
          <polygon class="cls-20" points="347.87 172.38 346.48 172.21 346.73 170.83 348.12 171 347.87 172.38"/>
          <polygon class="cls-1" points="349.26 172.56 347.87 172.38 348.12 171 349.5 171.17 349.26 172.56"/>
          <polygon class="cls-1" points="344.87 173.43 343.49 173.26 343.73 171.88 345.12 172.05 344.87 173.43"/>
          <polygon class="cls-20" points="346.26 173.6 344.87 173.43 345.12 172.05 346.5 172.22 346.26 173.6"/>
          <polygon class="cls-1" points="347.62 173.77 346.24 173.6 346.48 172.21 347.87 172.38 347.62 173.77"/>
          <polygon class="cls-20" points="349.01 173.94 347.62 173.77 347.87 172.38 349.26 172.56 349.01 173.94"/>
          <polygon class="cls-20" points="344.63 174.81 343.24 174.64 343.49 173.26 344.87 173.43 344.63 174.81"/>
          <polygon class="cls-1" points="346.01 174.98 344.63 174.81 344.87 173.43 346.26 173.6 346.01 174.98"/>
          <polygon class="cls-20" points="347.38 175.15 345.99 174.98 346.24 173.6 347.62 173.77 347.38 175.15"/>
          <polygon class="cls-20" points="348.77 175.32 347.38 175.15 347.62 173.77 349.01 173.94 348.77 175.32"/>
          <polygon class="cls-20" points="356.43 172 355.04 171.83 355.29 170.45 356.67 170.62 356.43 172"/>
          <polygon class="cls-1" points="357.81 172.17 356.43 172 356.67 170.62 358.06 170.79 357.81 172.17"/>
          <polygon class="cls-20" points="359.18 172.34 357.79 172.17 358.04 170.79 359.42 170.96 359.18 172.34"/>
          <polygon class="cls-20" points="360.56 172.51 359.18 172.34 359.42 170.96 360.81 171.13 360.56 172.51"/>
          <polygon class="cls-20" points="356.18 173.38 354.8 173.21 355.04 171.83 356.43 172 356.18 173.38"/>
          <polygon class="cls-20" points="357.57 173.55 356.18 173.38 356.43 172 357.81 172.17 357.57 173.55"/>
          <polygon class="cls-20" points="358.93 173.72 357.55 173.55 357.79 172.17 359.18 172.34 358.93 173.72"/>
          <polygon class="cls-1" points="360.32 173.89 358.93 173.72 359.18 172.34 360.56 172.51 360.32 173.89"/>
          <polygon class="cls-20" points="355.94 174.76 354.55 174.59 354.8 173.21 356.18 173.38 355.94 174.76"/>
          <polygon class="cls-1" points="357.32 174.93 355.94 174.76 356.18 173.38 357.57 173.55 357.32 174.93"/>
          <polygon class="cls-20" points="358.69 175.1 357.3 174.93 357.55 173.55 358.93 173.72 358.69 175.1"/>
          <polygon class="cls-20" points="360.07 175.27 358.69 175.1 358.93 173.72 360.32 173.89 360.07 175.27"/>
          <polygon class="cls-20" points="355.69 176.14 354.31 175.97 354.55 174.59 355.94 174.76 355.69 176.14"/>
          <polygon class="cls-20" points="357.08 176.31 355.69 176.14 355.94 174.76 357.32 174.93 357.08 176.31"/>
          <polygon class="cls-1" points="358.44 176.48 357.06 176.31 357.3 174.93 358.69 175.1 358.44 176.48"/>
          <polygon class="cls-1" points="359.83 176.65 358.44 176.48 358.69 175.1 360.07 175.27 359.83 176.65"/>
          <polygon class="cls-20" points="358.2 177.84 356.82 177.67 357.06 176.28 358.45 176.46 358.2 177.84"/>
          <polygon class="cls-20" points="359.59 178.01 358.2 177.84 358.45 176.46 359.83 176.63 359.59 178.01"/>
          <polygon class="cls-20" points="357.96 179.22 356.57 179.05 356.82 177.67 358.2 177.84 357.96 179.22"/>
          <polygon class="cls-20" points="359.34 179.39 357.96 179.22 358.2 177.84 359.59 178.01 359.34 179.39"/>
          <polygon class="cls-20" points="357.71 180.6 356.33 180.43 356.57 179.05 357.96 179.22 357.71 180.6"/>
          <polygon class="cls-1" points="359.1 180.77 357.71 180.6 357.96 179.22 359.34 179.39 359.1 180.77"/>
          <polygon class="cls-20" points="357.47 181.98 356.08 181.81 356.33 180.43 357.71 180.6 357.47 181.98"/>
          <polygon class="cls-20" points="358.85 182.15 357.47 181.98 357.71 180.6 359.1 180.77 358.85 182.15"/>
          <polygon class="cls-1" points="354.95 180.26 353.56 180.09 353.81 178.71 355.2 178.88 354.95 180.26"/>
          <polygon class="cls-20" points="356.34 180.43 354.95 180.26 355.2 178.88 356.58 179.05 356.34 180.43"/>
          <polygon class="cls-1" points="354.7 181.64 353.32 181.47 353.56 180.09 354.95 180.26 354.7 181.64"/>
          <polygon class="cls-20" points="356.09 181.81 354.7 181.64 354.95 180.26 356.34 180.43 356.09 181.81"/>
        </g>
        <g>
          <polygon class="cls-20" points="348.97 168.7 344.4 168.14 345.2 163.59 349.77 164.15 348.97 168.7"/>
          <polygon class="cls-1" points="348.5 168.08 345.06 167.65 345.67 164.22 349.11 164.64 348.5 168.08"/>
          <polygon class="cls-20" points="347.99 167.37 345.8 167.1 346.19 164.93 348.37 165.19 347.99 167.37"/>
          <polygon class="cls-20" points="360.98 170.18 356.41 169.62 357.22 165.07 361.79 165.63 360.98 170.18"/>
          <polygon class="cls-1" points="360.52 169.55 357.07 169.13 357.68 165.7 361.12 166.12 360.52 169.55"/>
          <polygon class="cls-20" points="360 168.85 357.81 168.58 358.2 166.4 360.38 166.67 360 168.85"/>
          <polygon class="cls-20" points="346.84 180.67 342.27 180.11 343.08 175.56 347.65 176.12 346.84 180.67"/>
          <polygon class="cls-1" points="346.38 180.04 342.93 179.62 343.54 176.19 346.99 176.61 346.38 180.04"/>
          <polygon class="cls-20" points="345.86 179.34 343.67 179.07 344.06 176.89 346.25 177.16 345.86 179.34"/>
          <g>
            <polygon class="cls-1" points="356.34 178.72 354.15 178.45 354.54 176.27 356.73 176.54 356.34 178.72"/>
            <polygon class="cls-20" points="356.01 178.27 354.62 178.1 354.87 176.72 356.26 176.89 356.01 178.27"/>
          </g>
        </g>
      </g>
      <polygon class="cls-15" points="342.48 161.17 341.81 166.08 342.96 166.03 343.15 162.19 346.82 162.17 346.68 160.98 342.48 161.17"/>
      <polygon class="cls-15" points="361.05 162.17 360.84 163.25 364.06 163.4 362.97 167.96 364.32 168.17 365.49 162.39 361.05 162.17"/>
      <path class="cls-15" d="M339.17,179.83c-.02.33-.6,4.25-.6,4.25l3.47.84.06-1.26-2.14-.6.16-3.19-.95-.05Z"/>
      <polygon class="cls-15" points="356.55 185.63 356.33 186.52 360.69 186.74 361.17 181.51 360.37 181.71 359.56 185.77 356.55 185.63"/>
    </g>
    <path class="cls-13" d="M258.42,123.91c-2.65-2.48-3.06-6.58-2.81-10.04,1.88-5.31,3.07-10.85,3.51-16.47,2.51-10.5,3.07-21.49,1.51-31.98-2.75-18.5-13.1-36.05-31.42-42.53-19.31-6.82-36.47,5.03-49.93,17.86-23.58,22.48-52.72,69.98-26.92,100.65,1.68,2,3.62,3.84,5.74,5.54,5.06,1.72,10.14,3.37,15.33,4.64,7.86,1.92,16.01,2.76,24.09,2.98,3.95.11,7.93.05,11.84-.63,3.66-.64,7.28-1.59,10.78-2.82,1-.35,2-.73,2.99-1.11,2.66-1.51,5.22-3.07,7.59-4.62,4.98-3.24,9.42-7.14,13.26-11.58.05.19.12.36.21.52,2.78,5.02,15.47,2.7,17.15,0,1.69-2.7,2.32-5.5-2.93-10.42Z"/>
    <path class="cls-19" d="M230.36,143.03c-.86-.66-1.92-.81-2.87-1.3-1.11-.58-2.1-1.38-2.93-2.32-1.8-2.02-2.01-4.18-2.88-6.58-.24-.67-1.17-.7-1.4,0-.85,2.63.67,6.07,2.18,8.19,1.47,2.07,4.38,5.02,7.14,4.77,1.54-.14,1.92-1.86.75-2.76Z"/>
    <path class="cls-19" d="M253.75,79.86c-.92-.15-1.81-.51-2.72-.71-1-.23-2.01-.38-3.03-.51-1.8-.23-3.62-.27-5.43-.12-3.47.3-7.67,1.1-10.31,3.54-.5.46-.13,1.43.57,1.39,1.61-.1,3.16-.51,4.75-.74,1.64-.23,3.33-.3,4.98-.26,1.57.04,3.13.22,4.66.55,1.46.32,3.29.68,4.55,1.5,1.29.84,3.05.11,3.61-1.22.54-1.27-.12-3.18-1.65-3.43Z"/>
    <path class="cls-20" d="M228.54,99.53c-.07-.27-.46-.2-.47.06-.04.65-.16,1.29-.26,1.94-.11.72-.23,1.42-.31,2.15-.08.71-.23,1.4-.3,2.11-.02.15-.04.3-.05.45-.02.3.06.48.14.76.08.27.09.54.21.79.12.26.47.24.65.08.24-.2.39-.5.56-.76.41-.46.49-1.17.55-1.77.06-.65.07-1.31.06-1.96-.01-1.33-.42-2.58-.78-3.85Z"/>
    <path class="cls-20" d="M234.47,106.7c-.17-.29-.5-.44-.83-.4-.35.05-.56.28-.69.6-.19.48-.29.97-.32,1.49-.02.25-.04.49-.06.74-.01.11-.02.21-.04.32,0,.03,0,.03,0,.04,0,.03,0,.06-.01.09-.07.45-.16.89-.25,1.34-.06.31-.08.63-.11.94,0,.07-.02.14-.03.21,0-.05.01-.1.02-.14-.01.22-.07.44-.08.66-.03.64.51,1.18,1.11,1.26.68.09,1.16-.32,1.41-.92.4-.97.45-2.07.46-3.11,0-1.06,0-2.18-.56-3.11Z"/>
    <path class="cls-20" d="M241.76,114.08c-.08-1.01-.25-2.01-.53-2.98-.17-.58-.83-1.01-1.43-.81-.65.21-.92.79-.81,1.43,0,.02.03.17.04.24,0,.06.02.19.03.21.02.22.04.44.05.67.02.43.02.86,0,1.29-.02.43-.06.86-.09,1.29-.01.21-.04.41-.05.62,0,.02,0,.03,0,.04,0,0,0,0,0,.01-.03.22-.07.44-.08.66-.03.66.53,1.22,1.15,1.3.68.09,1.24-.32,1.45-.95.18-.52.22-1.14.28-1.69.05-.45.04-.89,0-1.35Z"/>
    <path class="cls-20" d="M248.99,115.49c-.08-.94-.23-1.88-.48-2.79-.17-.65-.93-1.12-1.59-.9-.71.23-1.05.88-.9,1.59.04.22.08.43.12.65,0,.04,0,.03.01.05,0,.01,0,0,0,.03.01.11.03.22.04.33.04.46.07.91.07,1.37,0,.44-.06.88-.06,1.32,0,.22.03.44.03.66.01.47.14.84.46,1.13.11.23.26.42.54.5.34.09.61-.06.83-.28.35-.15.64-.47.74-.84.14-.51.25-1.02.26-1.55,0-.42-.02-.85-.05-1.27Z"/>
    <g>
      <path class="cls-20" d="M256.49,115.79c-.18-.86-.42-1.7-.71-2.53-.22-.63-.88-1.11-1.57-.89-.7.23-1.02.86-.89,1.57.04.23.08.45.11.68,0,.03,0,.09.01.14,0-.03,0-.05,0-.11,0,.09.02.19.03.29.05.42.08.84.09,1.26.04.95-.07,1.91.21,2.83.18.6.77,1.11,1.43,1.09.66-.03,1.23-.44,1.43-1.09.32-1.06.08-2.17-.14-3.23Z"/>
      <path class="cls-20" d="M253.45,114.75c0,.07,0,.06,0,0h0Z"/>
    </g>
    <path class="cls-20" d="M237.3,86.42c-.42-.25-.94-.15-1.29.17-.64.58-1.06,1.36-1.53,2.09-.4.61-.74,1.25-1.11,1.88-.71,1.21-1.51,2.3-2.62,3.18-.62.5.19,1.53.85,1.1,1.26-.8,2.35-1.88,3.32-3.01.52-.6,1.02-1.22,1.48-1.88.23-.33.46-.67.7-1,.13-.18.28-.36.39-.56.14-.24.21-.51.31-.77.16-.44-.1-.98-.49-1.2Z"/>
    <path class="cls-20" d="M248.34,87.52c-.33-.31-.94-.47-1.33-.17-.2.15-.41.28-.62.41-.29.2-.51.46-.75.72-.36.38-.74.75-1.13,1.09-.19.16-.37.32-.57.48-.05.04-.11.09-.16.13-.13.11-.09.06.02-.01-.1.07-.2.15-.3.22-.43.32-.88.62-1.34.9-.53.32-.78,1.08-.42,1.62.36.55,1.04.74,1.62.42,1.02-.55,1.97-1.2,2.87-1.93.41-.33.81-.67,1.19-1.03.25-.24.56-.49.73-.79.14-.23.24-.49.36-.73.21-.42.2-.99-.17-1.33Z"/>
    <path class="cls-20" d="M258.81,91.91c0-.24-.07-.46-.27-.63-.17-.14-.36-.17-.55-.16-.45-.13-.87-.02-1.27.29-.48.38-.89.88-1.32,1.31-.46.45-.92.89-1.38,1.33-.92.86-1.86,1.7-2.82,2.51-.46.4-.44,1.24,0,1.64.51.47,1.13.4,1.64,0,.99-.78,1.96-1.59,2.91-2.42.47-.41.93-.82,1.39-1.24.46-.42,1-.84,1.39-1.33.33-.42.43-.85.28-1.32Z"/>
    <path class="cls-20" d="M263.29,99.34c-.31-.4-.79-.55-1.28-.44-.34.08-.65.29-.96.44-.22.11-.44.21-.66.34-.43.27-.87.52-1.32.75-.09.05-.22.14-.32.15.18-.07.19-.08.05-.02-.06.02-.13.05-.19.07-.1.03-.19.06-.29.08-.04.01-.09.02-.13.03-.1,0-.2,0-.3,0,0,0,0,0,0,0-.05-.01-.1-.03-.15-.04-.11-.07-.27-.2-.06-.02,0,0-.02,0-.02,0-.27-.21-.54-.35-.89-.35-.33,0-.73.15-.96.4-.46.5-.58,1.43,0,1.92,1.16.97,2.65,1.04,4.02.47.63-.26,1.23-.57,1.81-.91.35-.2.66-.44.96-.7.29-.25.6-.49.79-.82.25-.42.2-.97-.1-1.35Z"/>
    <path class="cls-13" d="M366.26,230.42c0-.05,0-.1-.01-.16-1.06-2.04-2.27-4.04-2.58-6.37-.21-1.59-.03-2.43.43-4,.34-1.16.87-2.3,1.45-3.36.48-.88.84-1.39,1.08-2.48,0-.01-.04-.42.08-.15-.22-.5-.54-.82-.94-1.18-1.23-1.08-.82-3.11.2-4.13.96-.95,2.02-1.79,3.04-2.67.69-.6,1.61-1.29,1.97-2.17.42-1.01-.04-2.2-.35-3.18-.06-.19-.12-.38-.18-.57-1.8-.57-3.75-.6-5.61-.23-2.5.08-5,.97-7.3,2.09-6.42,3.13-11.71,8.02-16.22,13.48-2.37,2.87-4.49,5.95-6.44,9.12.2-2.47.95-4.75,2.43-6.89,1.99-2.87,4.54-5.29,6.1-8.46,1.7-3.46,2.44-7.43.63-11.02-1.56-3.09-6-4.56-8.81-2.2-2.57,2.15-2.05,6.38-3.01,9.31-1,3.05-3.21,5.49-4.99,8.11-1.97,2.91-3.53,6.07-3.79,9.63-.3,4.16.96,8.22,2.4,12.06-.22.82-.52,1.62-.72,2.44-1.11,4.58.56,8.88,4.77,11.17,6.11,3.32,13.82,5.38,20.54,3.34.28,0,.56,0,.84-.02,2.45-.17,4.63-1.17,6.59-2.61,3.05-2.23,5.34-5.7,7.09-9.01.77-1.46,1.31-2.9,1.66-4.35-.16-1.83,0-3.69-.33-5.53Z"/>
    <path class="cls-12" d="M348.19,249.26c-1.2-1.75-3.37-2.3-5.27-2.99l-14.28-5.2c-.25-.09-.51-.13-.77-.15-1.01-.89-2.62-1.03-3.47.47-6.91,12.22-13.55,24.61-20.21,36.97-2.88-.28-6.32.6-8.42,1.47-2.71,1.12-5.14,2.86-7.07,5.07-.85.97-1.52,2.11-2.42,3.03-.07.07-.22.21-.36.34-.15-.22-.33-.46-.35-.49-3.25-4.57-9.41-5.7-14.6-4.44-4.23,1.03-7.66,3.59-10.7,6.58-2.84.76-5.53,1.25-8.36,1.21-.18-.28-.38-.59-.6-.94-1.02-1.61-2-3.24-3.07-4.82-1.06-1.56-2.19-3.06-3.44-4.44-.01-.08,0-.15-.03-.23-.22-.99-1.21-1.93-2.28-2.04-.9-.79-1.87-1.51-2.92-2.15-2.37-1.44-4.94-2.45-7.62-3.03-.19-.65-.32-1.32-.41-1.99-.28-2.03-.42-3.98-1.17-5.91-.71-1.85-1.9-3.34-3.43-4.58-.86-.7-1.81-1.25-2.81-1.71,1.61-3,3.25-6.18,3.06-9.64-.2-3.74-2.08-6.65-5-8.89-2.11-1.62-4.61-2.64-6.89-3.99-.55-.33-1.09-.67-1.61-1.04-.09-.07-.39-.3-.54-.42-.14-.13-.41-.39-.48-.46-.21-.22-.39-.5-.61-.71-.05-.09-.11-.17-.16-.26-.44-.82-.52-1.03-.73-2.09-.08-.43-.15-.86-.19-1.3,0-.03-.02-.64-.02-.75-.03-.99,0-1.98.01-2.97.04-2.12.08-4.24.06-6.36-.05-4.28-.44-8.68-1.73-12.82-1.11-3.57-2.9-7.16-6.15-9.22-1.5-.95-3.24-1.54-5.01-1.75-1.01-.78-2.14-1.45-3.38-1.96-5.6-2.32-12.38-1.17-17.83.99-10.95,4.34-18.28,15.3-18.32,27.05,0,3.03.39,6.12,1.34,9,.03.1.07.2.11.3-.84,1.2-1.73,2.37-2.65,3.52-3.2,3.97-6.45,7.76-8.47,12.51-2.04,4.79-2.41,10.2-.25,15.01.87,1.95,2.15,3.69,3.4,5.41.27.37.55.75.82,1.12.13.19.27.37.4.56.01.02.01.02.02.03.01.02.02.03.04.06.53.79,1.04,1.59,1.48,2.43.1.19.2.39.29.59,0-.02.15.37.22.53.03.1.07.22.08.25.06.21.11.41.16.62.05.21.08.42.12.64,0,0,0,0,0,.02,0,.39-.02,1.16-.05,1.35-.38,2.33-1.64,4.48-2.21,6.76-2.01,7.95-.67,17.5,5.4,23.44,1.96,1.92,4.2,3.29,6.73,4.33,2.17.89,4.45,1.46,6.67,2.19-.32,3.62.03,7.27,1.45,10.71,2.28,5.52,7.9,10.2,14.04,10.29,1.57.02,3.09-.27,4.6-.68.73-.2,1.46-.42,2.2-.59.8-.18,1.23-.31,1.87-.21-.16.01.46.29.21.07-.2-.18.22.18.23.19.3.38.64.92,1.02,1.5.69,1.04,1.43,2.03,2.24,2.96,1.13,2.5,2.73,4.81,4.53,6.79,3.72,4.11,8.63,7.2,13.99,8.66,2.68.73,5.51,1.11,8.29.96,3.44-.19,6.69-1.12,10.04-1.82,1.57-.33,2.83-.54,4.38-.48.81.03,1.54.13,1.98.26.86.25,1.7.5,2.52.84,2.57,1.05,5.45,3.02,8.2,4.45,10.87,5.65,24,4.48,33.81-2.86,1.52-1.14,2.85-2.47,4.09-3.88,1.27-.56,2.53-1.11,3.81-1.64,6.82-2.8,14.48-4.37,20.7-8.81,4.22-3.01,7.54-7.4,8.72-12.36.65-1.66,1.11-3.4,1.32-5.16,2.68-3.11,3.7-7.33,3.64-11.56-.02-1.39-.15-2.79-.31-4.17-.09-.78-.19-1.56-.28-2.34-.04-.36-.08-.72-.12-1.07,0-.06-.05-.5-.06-.58-.12-1.39-.15-2.8-.03-4.19.1-1.14.35-2.38.87-3.36.23-.42.38-.86.46-1.31.48-.38.87-.89,1.12-1.48,3.52-8.15,7.06-16.3,10.56-24.46,1.74-4.04,3.47-8.08,5.21-12.12.94-2.19,2.15-4.42.61-6.67ZM161.07,241.96s-.02.03-.03.05c-.17.07-.34.15-.51.23.57-.74,1.13-1.49,1.69-2.22.03-.04.06-.08.08-.11-.43.68-.85,1.36-1.25,2.06ZM162.97,274.92c-.05-.66-.15-1.32-.32-1.98-.27-1.06-.68-2.08-1.16-3.05.08-.03.16-.06.24-.1.09-.04.17-.1.26-.15.06.06.11.11.17.17.07.32.14.64.22.96.27,1.13.58,2.24.9,3.35-.1.27-.2.54-.31.81ZM219.57,248.94c.03.22.09.44.13.66,0,.03,0,.05,0,.09,0,.15-.09,1.01-.05.86-.15.67-.48,1.56-.72,2.11.31-1.29.51-2.63.55-3.97.03.06.06.12.08.18,0,.02,0,.05.01.08ZM273.34,293.65s0,0,0,0t0,0ZM219.54,248.74s0-.02,0,0h0ZM323.52,293.02s-.04-.02-.06-.03c-.03-.06-.07-.11-.11-.17.07.03.14.06.22.09-.02.04-.03.08-.05.12Z"/>
    <path class="cls-19" d="M365.06,208.99c-.64-.03-1.26.4-1.81.68-.57.29-1.17.57-1.71.91-1.12.69-2.19,1.52-3.23,2.33-.99.78-1.98,1.58-2.89,2.47-.47.45-.92.92-1.37,1.39-.22.24-.45.47-.66.72-.27.31-.39.62-.54.99-.26.67.52,1.21,1.1.94,1.1-.51,1.94-1.56,2.86-2.35.96-.83,1.9-1.67,2.89-2.46.96-.76,1.96-1.44,2.95-2.15.51-.36.99-.76,1.49-1.14.47-.35,1.19-.69,1.47-1.21.25-.47.01-1.1-.57-1.12Z"/>
    <path class="cls-19" d="M364.02,223c-.05-.21-.17-.45-.37-.56,0,0-.02,0-.03-.01-.4-.22-.76-.17-1.12.09-.79.56-1.59,1.1-2.36,1.68-.38.29-.75.58-1.12.87-.24.18-.44.36-.62.6-.15.19-.29.38-.44.56-.2.26-.15.71.07.94.26.26.6.3.93.17.22-.09.43-.18.65-.27.27-.11.5-.3.73-.48.39-.29.79-.58,1.18-.88.76-.58,1.49-1.22,2.23-1.82.25-.2.35-.58.28-.89Z"/>
    <path class="cls-19" d="M366.29,232.63c-.08-.26-.3-.41-.57-.36-.13.02-.26.03-.38.1-.17.1-.28.25-.4.4-.07.09-.14.17-.21.26-.01.01,0,0-.01.02,0,0,0,0-.01.02-.04.04-.08.09-.12.13-.3.33-.62.64-.97.92-.17.14-.35.27-.52.4-.09.07-.17.13-.26.2-.03.02-.1.1-.14.11.1-.07.12-.09.07-.05-.02.02-.05.03-.07.05-.18.12-.37.24-.56.35-.1.06-.21.12-.31.17-.28.15-.46.32-.57.62-.16.43.12,1,.56,1.11.32.08.57.05.86-.1.1-.06.21-.12.31-.18.25-.15.5-.32.74-.49.38-.27.74-.57,1.06-.91.35-.38.69-.78.98-1.2.14-.19.27-.4.39-.6.09-.15.17-.3.2-.47.03-.18,0-.32-.06-.49Z"/>
    <path class="cls-13" d="M367.38,212.43c-.39-.77-1.24-1.42-2.13-1.4-.83.02-1.69.48-1.93,1.33-.02.09-.03.17-.05.26,0,0,0,.02-.03.09,0,.04,0,.04,0,.06,0,.02-.01.04-.01.07-.01.02-.02.03-.05.09-.17.32-.35.64-.52.97-.29.58-.53,1.16-.49,1.8-.15.23-.31.45-.48.67-.39.42-.8.82-1.22,1.22-.66.62-1.36,1.14-1.8,1.96-.48.92-.56,1.9.06,2.79.54.78,1.63,1.31,2.59,1.03.4-.12.81-.23,1.18-.44.37-.21.72-.51,1.04-.79.39-.33.78-.67,1.13-1.05.8-.86,1.56-1.78,2.11-2.82.6-1.15.96-2.38,1.01-3.69.03-.75-.07-1.46-.42-2.14Z"/>
    <path class="cls-13" d="M366.93,225.86c-.46-1-1.4-1.76-2.52-1.84-.97-.06-1.87.38-2.51,1.09-.28.31-.54.64-.8.97-.25.31-.4.68-.55,1.05-.05.12-.09.22-.13.34-.01.05-.09.44-.1.53-.06.29-.13.56-.21.84-.08.29.03.55.22.72-.02.03-.06.06-.08.1-.18.25-.35.5-.53.75-.22.32-.37.63-.47.96-.05.09-.1.18-.15.27-.19.36-.38.71-.38,1.14,0,.1.01.2.02.31-.11.43-.17.86.06,1.28.3.54.83.84,1.45.78.2-.02.35-.08.54-.14.18.01.36.02.55-.03.4-.09.77-.33,1.11-.56.43-.17.82-.45,1.2-.76.28-.22.58-.44.84-.68.58-.54,1.18-1.21,1.62-1.86,1.05-1.52,1.63-3.51.82-5.27Z"/>
    <path class="cls-4" d="M326.69,247.59c-2.7,4.52-5.24,9.14-7.73,13.79-2.47,4.62-5.22,9.18-7.39,13.94-.33.73.14,1.55.7,1.98.11.09.27.15.4.19.69.22,1.6-.04,1.98-.7,1.31-2.28,2.38-4.74,3.55-7.1,1.17-2.37,2.34-4.75,3.52-7.12,2.31-4.68,4.57-9.4,6.65-14.19.43-.98-1.14-1.71-1.68-.8Z"/>
    <path class="cls-4" d="M335.08,250.75c-.01-.74-.97-1.38-1.57-.74-1.06,1.15-1.58,2.78-2.24,4.18-.74,1.56-1.48,3.11-2.21,4.67-1.42,3.04-2.9,6.06-4.43,9.06-1.52,2.99-3.14,5.92-4.79,8.84-.71,1.26-1.86,2.73-1.21,4.24.46,1.08,2.09,1.68,2.95.67.09-.11.17-.23.24-.35.02.04.07-.08.2-.5.06-.2.05-.42.12-.61.2-.54.67-1.11.95-1.61.69-1.22,1.35-2.46,2.01-3.7,1.38-2.62,2.7-5.27,3.97-7.95,1.23-2.6,2.35-5.26,3.42-7.93.52-1.3.98-2.62,1.43-3.95.46-1.36,1.17-2.86,1.14-4.31Z"/>
    <path class="cls-4" d="M341.23,254.72c-1.79,1.81-2.71,4.6-3.79,6.88-1.21,2.54-2.36,5.11-3.53,7.68-2.3,5.04-4.59,10.09-6.88,15.14-.44.97.32,2.18,1.26,2.49,1.1.36,2.04-.28,2.49-1.26,2.26-4.97,4.48-9.95,6.64-14.96,1.05-2.43,2.11-4.85,3.1-7.3.97-2.41,2.5-5.14,2.6-7.78.03-.93-1.17-1.6-1.88-.89Z"/>
    <path class="cls-12" d="M188.88,161.41c-.05-.38-.11-.77-.19-1.15-.14-.74-.31-1.48-.56-2.19-.27-.75-.56-1.49-.95-2.19-.38-.69-.83-1.3-1.27-1.95-.36-.52-1.32-.22-1.09.46.24.68.39,1.39.55,2.09.16.71.33,1.42.46,2.14.06.34.12.67.18,1.01.03.19.07.38.1.58.01.1.03.19.04.29-.01-.1-.01-.07,0,.1.09.84-.04,1.96.68,2.54.46.37,1.14.48,1.59,0,.49-.51.53-1.06.43-1.73Z"/>
    <path class="cls-12" d="M181.88,162.04c0-.89.01-1.79-.01-2.69-.05-1.66-.13-3.37-.75-4.92-.25-.62-1.2-.4-1.02.28.22.84.04,1.65-.05,2.5-.08.83-.19,1.66-.23,2.49-.04.9-.08,1.79-.11,2.69-.02.47,0,.88.18,1.32.19.44.57.78,1.08.66.98-.24.91-1.55.91-2.33Z"/>
    <path class="cls-1" d="M254.24,100.05c-1.59-1.4-3.63-2.51-5.7-3.39-1.8-1.87-4.49-3.03-6.9-3.38-1.91-.28-3.84-.31-5.77-.12-1.29.12-2.43.47-3.36,1.11-.69-.16-1.42-.12-2.09.17-1.64.69-2.29,2.32-1.97,4.02.18.95.64,1.65,1.24,2.23,3.22,4.81,8.03,8.76,13.8,9.9,3.21.64,7.1.74,10-1.01,3.56-2.15,3.81-6.81.74-9.52Z"/>
    <path class="cls-20" d="M256.25,109.98c-5.6,2.08-12.4.87-17.51-1.96-2.42-1.34-4.56-3.12-6.36-5.22-1.89-2.21-2.89-4.72-4.32-7.2-.62-1.07-2.07-.31-1.88.79.49,2.97,2.53,5.93,4.38,8.22,2.03,2.51,4.58,4.65,7.42,6.2,3.03,1.66,6.4,2.63,9.83,2.97,2.95.3,7.48.61,9.57-1.88.67-.8.06-2.39-1.13-1.94Z"/>
    <path class="cls-20" d="M257.12,101.16c-1.82-3.36-4.51-6.47-7.87-8.36-6.81-3.82-16.26-2.31-22.36,2.23-.85.63-.4,2.21.78,1.84,3.02-.95,6-2.18,9.16-2.63,3.16-.45,6.47-.12,9.41,1.16,2.49,1.08,4.53,2.97,6.12,5.15-.26.02-.51.06-.77.12-3.51.89-5.57,6.01-4.72,9.31.56,2.16,2.41,3.74,4.69,3.61.52-.03,1-.16,1.45-.34.2.05.42.08.64.08,1.19.02,2.03-.61,2.63-1.47.33-.28.63-.61.88-1,.34-.03.65-.2.85-.56.57-1.02.94-2.73.94-3.89,0-1.83-.99-3.71-1.85-5.28Z"/>
  </g>
  <g id="Layer_4_copy">
    <g>
      <path class="cls-19" d="M265.63,29.93c-7.87-10.54-22.11-19.55-47.12-22.92-34.03-4.59-47.14,21.96-65.02,32.24-5.37,4.59-11.46,8.46-17.35,12.12-5.53,3.43-11.15,6.71-16.35,10.65-4.54,3.44-9.58,8.28-12.78,13.05-4.48,6.68-6.68,14.22-8.03,22.09-1.47,8.56-2.14,17.33-5.01,25.59-4.4,12.68-13.5,22.69-23.8,31.01-1.39,1.12-2.79,2.21-4.22,3.27-.06.04-.12.09-.17.13-1.4,1.04-2.81,2.06-4.23,3.05-1.06.74-2.15,1.45-3.23,2.17,0,0,0,0,0,0-2.27,1.49-4.56,2.96-6.7,4.61-.9.69-2.71,2.27-3.87,3.42-1.29,1.27-2.48,2.61-3.62,4.02-.05.07-.11.14-.16.2-.02.03-.04.06-.08.11-.12.15-.23.31-.34.46-.26.36-.52.73-.78,1.1-.47.69-.92,1.39-1.35,2.1-.34.56-.64,1.13-.95,1.7-1.38,3.71-2.3,7.57-2.53,11.61-.42,7.25,1.16,15.87,6.05,21.54,2.3,1.4,4.54,2.89,6.78,4.38,1.24.36,2.52.59,3.83.64,3.41.13,6.82-.82,10.06-1.77,3.16-.92,6.3-1.94,9.3-1.96,2.85-.02,5.32.94,7.87,2.82,2.27,1.68,4.52,4.45,6.14,7,.43.67.82,1.37,1.21,2.06,2.25,2.56,4.89,4.7,7.93,6.31.88.47,1.8.87,2.73,1.25,1.6.37,3.2.74,4.81,1.09,2.68.58,5.35,1.13,8.04,1.62,7.52.67,15.08.5,22.63.48,1.34-3.37,2.94-6.61,4.9-9.57,5.39-8.16,13.14-14.78,21.2-20.2,4.2-2.83,8.54-5.47,12.55-8.56,1.23-.94,2.49-1.9,3.69-2.93,4.53-6.07,7.32-13.36,6.44-21.04h.03c.02-.44.2-.81.47-1.1-1.77-5.05-2.88-10.27-3.45-15.59.05-7.18.86-14.32,2.44-21.34.01-.06.01-.11.02-.17,7.63-23.22,18.77-48.62,34.51-67.56.26-3.32,4.44-5.65,7.56-6.34.08-.02.16-.02.24-.03.6-.35,1.21-.68,1.83-.98,4.9-2.35,10.19-3.57,15.45-4.86,2.48-.61,4.97-1.23,7.39-2.06.67-.23,1.33-.48,1.99-.74.07-.03.09-.04.14-.05.04-.02.05-.03.1-.05.35-.18.71-.34,1.06-.51,1.43-.72,2.81-1.55,4.11-2.47,4.51-3.18,8.4-8.4,8.68-14.05.12-2.48-.25-4.78-1.02-7.03ZM113.84,179.75c-.05-.09-.1-.17-.15-.26.22.07.44.14.66.21-.17.01-.34.02-.5.04Z"/>
      <path class="cls-19" d="M266.73,30.57c-1.16-1.83-2.67-3.29-4.48-4.48-.75-.49-1.65-1.07-2.52-1.31.33.09-1.42-.28-.85-.09-.58-.18-1.05-.42-1.66-.54-1.06-.21-2.24.93-1.52,1.98,1.77,2.59,4.41,4.64,5.87,7.46,1.33,2.57,1.51,5.72,1.42,8.6-.84.08-1.67.49-2.01,1.29-.09.21-.17.43-.26.65,0,0,0,0,0,0,0,.02,0,.04-.01.06,0,.02-.01.04-.02.05-.63-.2-1.33-.22-1.96-.06-1.48-.18-3.1,1.18-3.19,2.76-.08,1.42.38,2.65.74,4,.18.68.35,1.36.5,2.05.51.04.99.36,1.17,1.04.79,2.96,1.46,5.95,1.97,8.97.11.62.21,1.25.31,1.89.25-.13.49-.31.71-.56,1.35-1.52,2.85-3.08,3.92-4.81,1.05-1.7,1.81-3.67,2.49-5.54,1.37-3.76,2.08-7.79,2.08-11.79,0-3.95-.51-8.22-2.67-11.62Z"/>
      <path class="cls-19" d="M263.49,38.14c-3.1,4.51-6.15,9.02-9.99,12.96-3.84,3.93-8.07,7.35-12.56,10.5-9.66,6.79-19.51,13.82-25.75,24.09-3.05,5.02-5.19,10.51-7.5,15.88-2.25,5.23-4.77,10.31-7.96,15.03-5.74,8.49-13.41,15.97-21.12,23.03-4.44,4.07-8.91,8.11-13.22,12.32-4.45,4.34-8.39,9.12-11.91,14.24-1.32,1.93,1.52,3.86,3.11,2.4,4.02-3.67,8.26-7.05,12.3-10.7,4.05-3.66,8.22-7.18,12.27-10.84,8.12-7.34,16.07-14.89,22.64-23.69,3.31-4.43,6.13-9.17,8.4-14.21,2.48-5.5,4.5-11.21,7.24-16.59,2.65-5.19,6.07-9.59,10.24-13.64,4.13-4.01,8.74-7.44,13.19-11.08,4.88-3.99,9.85-7.98,14.11-12.65,4.21-4.62,8.02-10.11,8.53-16.51.09-1.15-1.46-1.34-2.01-.54Z"/>
      <path class="cls-19" d="M252.11,50.45c-3.88,0-7.97,1.27-11.69,2.34-3.68,1.06-7.32,2.37-10.76,4.07-6.5,3.21-12.31,7.68-16.5,13.63-8.24,11.69-8.79,26.44-13.34,39.6-2.74,7.91-6.73,15.44-11.33,22.42-1.06,1.6,1.4,3.54,2.68,2.07,4.85-5.57,8.77-11.76,11.75-18.52,2.9-6.59,4.8-13.42,6.48-20.4,1.56-6.49,3.13-13.19,6.29-19.11,3.14-5.9,8.05-10.4,13.72-13.85,3.57-2.17,7.38-3.93,11.22-5.55,2.02-.85,4.08-1.61,6.11-2.44,1.98-.81,4.02-1.48,5.82-2.62.72-.46.45-1.62-.44-1.62Z"/>
      <path class="cls-19" d="M206,80.85c-2.09,1.63-4.32,3.06-6.17,4.98-1.77,1.84-3.2,3.95-4.24,6.28-2.17,4.85-2.83,10-3.74,15.18-1.88,10.79-7.06,20.4-13.41,29.21-1.82,2.52-3.73,4.98-5.69,7.39-1.67,2.06-4.79,4.98-4.39,7.87-.01-.04-.02-.08-.03-.12-.05.11-.1.21-.15.32-.56,1.43,1.34,2.7,2.54,1.95.07-.04.13-.07.2-.11,2.51-.18,4.6-3.24,6.03-5,1.82-2.25,3.61-4.52,5.34-6.84,3.33-4.45,6.41-9.09,8.92-14.07,2.46-4.88,4.42-10.01,5.46-15.38.99-5.09,1.03-10.32,2.04-15.39,1.15-5.81,4.51-10.82,8.28-15.29.59-.7-.29-1.54-.99-.99Z"/>
      <path class="cls-19" d="M206.89,79.83c-1.69,1.25-3.2,2.39-4.5,4.06-1.3,1.67-2.43,3.46-3.33,5.38-2.02,4.29-3.23,8.86-4.3,13.47-1.12,4.82-2.25,9.63-4.06,14.25-1.72,4.4-4.12,8.43-6.79,12.32-1.44,2.1-2.92,4.17-4.28,6.32-.72,1.13-1.47,2.27-2.07,3.47-.29.59-.53,1.22-.76,1.84-.08.21-.19.44-.24.66-.1.48.13,1.01,0,1.46-.43,1.58,1.66,2.32,2.53,1.07.1-.15.79-.48,1.02-.75.37-.42.66-.92.97-1.38.63-.91,1.16-1.89,1.75-2.83,1.21-1.96,2.52-3.86,3.79-5.78,2.54-3.85,4.97-7.73,6.78-11.99,1.86-4.37,3.17-8.91,4.17-13.55,1.03-4.75,1.83-9.57,3.34-14.2.73-2.24,1.65-4.43,2.78-6.5,1.14-2.07,2.54-4.32,4.21-5.98.66-.66-.23-1.93-1.04-1.34Z"/>
      <path class="cls-19" d="M200.75,120.58c-6.61,5.23-10.92,12.95-13.3,20.96-2.74,9.21-1.65,18.94-4.48,28.12-.82,2.64-1.82,5.23-2.9,7.77-1.06,2.48-2.26,4.85-3.05,7.43-.24.76.84,1.16,1.25.53,2.49-3.81,4.21-8.3,5.75-12.57,1.6-4.45,2.62-9.01,3.18-13.7.57-4.77.86-9.62,1.91-14.31.93-4.14,2.37-8.17,4.3-11.94,2.16-4.21,4.84-8.23,7.64-12.04.14-.19-.14-.35-.3-.23Z"/>
      <path class="cls-19" d="M198.13,126.03c-7.11,7.52-9.42,17.81-11.61,27.6-1.17,5.23-2.47,10.39-4.18,15.47-1.69,5.04-3.77,9.94-5.51,14.95-.28.79.85,1.15,1.28.54,6.02-8.62,9.53-18.72,11.58-28.98,1.98-9.92,3.54-20.3,9.43-28.81.41-.59-.5-1.28-.99-.77Z"/>
      <path class="cls-19" d="M187.74,135.9c-2.1,1.41-3.31,4.07-4.43,6.26-1.27,2.47-2.38,5.03-3.31,7.65-.92,2.6-1.63,5.29-2.17,8-.26,1.3-.5,2.61-.63,3.93-.14,1.31-.46,2.85-.07,4.13.22.7,1.33.97,1.69.22.52-1.09.5-2.36.69-3.55.21-1.28.39-2.57.64-3.85.48-2.56,1.14-5.08,1.93-7.56.81-2.54,1.74-5.04,2.87-7.46,1.11-2.38,2.46-4.64,3.55-7.03.21-.45-.25-1.08-.75-.75Z"/>
      <path class="cls-19" d="M171.42,196.2c-12.48,1.35-22.72,10.49-29.35,20.59-6.36,9.68-12.72,23.78-26.45,22.78-3.51-.26-6.96-1.44-10.23-2.67-3.07-1.16-6.06-2.18-8.86-3.85-2.62-1.56-4.43-4-6.48-6.34-2.08-2.37-4.53-4.32-7.44-5.57-2.87-1.23-5.85-1.9-8.93-2.35-1.57-.23-3.15-.42-4.72-.63-.05,0-.35-.05-.41-.06-.41-.06-.82-.12-1.23-.18-.81-.13-1.63-.27-2.43-.44-2.98-.62-4.86-1.2-7.2-2.77-.02-.01-.54-.39-.61-.43-.14-.11-.27-.22-.41-.34-.48-.42-.94-.86-1.37-1.32-.26-.28-.51-.57-.76-.85-.05-.06-.09-.1-.13-.14-.45-.6-.87-1.23-1.25-1.87-.96-1.61-1.19-2.16-1.68-3.63-.24-.74-.45-1.49-.62-2.25-.09-.38-.15-.76-.23-1.15-.03-.13-.04-.19-.05-.24,0-.06-.01-.14-.02-.25-.32-3.44-.1-5.7.82-8.96,1.67-5.94,5.18-12.27,10.14-16.4,1.69-1.41-.52-4.28-2.36-3.06-2.78,1.85-5.53,3.64-7.9,6.02-2.29,2.29-4.28,4.89-5.76,7.78-3.03,5.88-3.72,12.71-2.07,19.11,1.59,6.17,5.43,11.88,10.91,15.22,2.69,1.64,5.77,2.64,8.85,3.24,1.49.29,2.99.51,4.49.71.9.12,1.8.24,2.7.36.16.02.27.03.34.04.06,0,.14.02.24.03.41.06.81.12,1.22.18,1.47.23,2.93.49,4.37.87.64.17,1.27.36,1.9.57.01,0,.57.21.7.26.3.13.6.27.89.42,2.87,1.46,4.57,3.77,6.88,6.32,4.97,5.48,12.42,8.09,19.4,10,7.24,1.98,14.99,2.3,21.63-1.67,5.74-3.43,9.74-8.95,12.88-14.72,3.76-6.93,6.69-14.27,12.38-19.93,5.21-5.17,11.62-8.45,18.39-11.1.65-.25.65-1.43-.18-1.34Z"/>
      <path class="cls-19" d="M127.23,232.28c-.74-.24-1.48-.47-2.21-.7,1.06-1.16,2.03-2.43,2.99-3.69,1.29-1.71-1.24-4.14-2.95-2.95-1.28.89-2.54,1.67-3.97,2.29-1.42.61-2.74,1.38-4.13,2.05-2.82-.72-5.67-1.36-8.53-1.93-1.58-.57-3.2-1.05-4.83-1.41-1.17-.26-2.38-.48-3.59-.66-1.92-.93-3.89-1.76-5.9-2.5.82-.08,1.63-.16,2.45-.26,1.69-.2,3.14-1.15,3.36-2.96.18-1.51-.75-3.5-2.45-3.75-5.53-.82-11.06-1.65-16.6-2.44-1.8-.26-3.64-.57-5.49-.83.02,0,.03,0,.05-.01,2.34-.66,1.36-4.15-1-3.63-1.33.3-2.65.62-4,.8-1.34.18-2.72.25-3.8,1.15-.4.34-.7.71-.91,1.09-.53.17-1.02.44-1.38.83-.07.02-.14.03-.21.06-3.04.89-3.32,4.77-.84,6.45,6.96,4.7,15.3,6.26,23.24,8.49,1.09.31,2.18.65,3.25,1-.14.63-.15,1.32.02,2.07,1.04,4.53,6.36,7.54,10.57,8.42,1.71.36,3.46.52,5.2.5,1.79.75,3.67,1.26,5.42,1.56,5.89,1.01,11.72.21,17.11-2.38,3-1.44,1.88-5.75-.87-6.65Z"/>
    </g>
  </g>
</svg>